<svg width="40" height="40" viewBox="0 0 40 40" fill="none" xmlns="http://www.w3.org/2000/svg">
<rect width="40" height="40" rx="14" fill="#E1F6FF"/>
<path fill-rule="evenodd" clip-rule="evenodd" d="M12.3 27.9012H26.7976C26.9633 27.9012 27.0976 27.7668 27.0974 27.6011V19.4228C27.0974 19.257 26.9632 19.1228 26.7974 19.1228H21.2633V13.3C21.2633 13.1343 21.129 13 20.9633 13H12.3C12.1343 13 12 13.1343 12 13.3V27.6012C12 27.767 12.1343 27.9012 12.3 27.9012ZM26.4976 27.3012H12.4976L12.6215 13.5719H20.6855V18.7228C20.6855 19.275 21.1332 19.7228 21.6855 19.7228H26.4976V27.3012Z" fill="#0F6E94"/>
<path d="M27.0974 27.6011H26.7974V27.6013L27.0974 27.6011ZM21.2633 19.1228H20.9633V19.4228H21.2633V19.1228ZM12.4976 27.3012L12.1976 27.2985L12.1948 27.6012H12.4976V27.3012ZM26.4976 27.3012V27.6012H26.7976V27.3012H26.4976ZM12.6215 13.5719V13.2719H12.3242L12.3215 13.5692L12.6215 13.5719ZM20.6855 13.5719H20.9855V13.2719H20.6855V13.5719ZM26.4976 19.7228H26.7976V19.4228H26.4976V19.7228ZM26.7976 27.6012H12.3V28.2012H26.7976V27.6012ZM26.7974 27.6013L26.7976 27.6012V28.2012C27.1291 28.2012 27.3977 27.9324 27.3974 27.6009L26.7974 27.6013ZM26.7974 19.4228V27.6011H27.3974V19.4228H26.7974ZM26.7974 19.4228H27.3974C27.3974 19.0914 27.1288 18.8228 26.7974 18.8228V19.4228ZM21.2633 19.4228H26.7974V18.8228H21.2633V19.4228ZM20.9633 13.3V19.1228H21.5633V13.3H20.9633ZM20.9633 13.3H21.5633C21.5633 12.9686 21.2947 12.7 20.9633 12.7V13.3ZM12.3 13.3H20.9633V12.7H12.3V13.3ZM12.3 13.3V12.7C11.9686 12.7 11.7 12.9686 11.7 13.3H12.3ZM12.3 27.6012V13.3H11.7V27.6012H12.3ZM12.3 27.6012H11.7C11.7 27.9326 11.9686 28.2012 12.3 28.2012V27.6012ZM12.4976 27.6012H26.4976V27.0012H12.4976V27.6012ZM12.3215 13.5692L12.1976 27.2985L12.7975 27.3039L12.9215 13.5746L12.3215 13.5692ZM20.6855 13.2719H12.6215V13.8719H20.6855V13.2719ZM20.9855 18.7228V13.5719H20.3855V18.7228H20.9855ZM21.6855 19.4228C21.2989 19.4228 20.9855 19.1094 20.9855 18.7228H20.3855C20.3855 19.4407 20.9675 20.0228 21.6855 20.0228V19.4228ZM26.4976 19.4228H21.6855V20.0228H26.4976V19.4228ZM26.7976 27.3012V19.7228H26.1976V27.3012H26.7976Z" fill="#0F6E94"/>
</svg>
