<svg width="40" height="40" viewBox="0 0 40 40" fill="none" xmlns="http://www.w3.org/2000/svg">
<rect width="40" height="40" rx="14" fill="#E1F6FF"/>
<path fill-rule="evenodd" clip-rule="evenodd" d="M26.8092 13.0216H12.3116C12.1459 13.0216 12.0116 13.1559 12.0116 13.3216V27.6229C12.0116 27.7886 12.1459 27.9229 12.3116 27.9229H20.9749C21.1406 27.9229 21.2749 27.7886 21.2749 27.6229V21.8001H26.8091C26.9748 21.8001 27.1091 21.6658 27.1091 21.5001V13.3217C27.1092 13.156 26.9749 13.0216 26.8092 13.0216ZM12.5092 13.6216H26.5092V21.2001H12.5092V13.6216ZM20.6666 21.8229H12.6116V27.3229H20.6666V21.8229Z" fill="#0F6E94"/>
<path d="M21.2749 21.8001H20.9749V21.5001H21.2749V21.8001ZM27.1091 13.3217L26.8091 13.3217L26.8091 13.3215L27.1091 13.3217ZM26.5092 13.6216V13.3216H26.8092V13.6216H26.5092ZM12.5092 13.6216H12.2092V13.3216H12.5092V13.6216ZM26.5092 21.2001H26.8092V21.5001H26.5092V21.2001ZM12.5092 21.2001V21.5001H12.2092V21.2001H12.5092ZM12.6116 21.8229H12.3116V21.5229H12.6116V21.8229ZM20.6666 21.8229V21.5229H20.9666V21.8229H20.6666ZM12.6116 27.3229V27.6229H12.3116V27.3229H12.6116ZM20.6666 27.3229H20.9666V27.6229H20.6666V27.3229ZM12.3116 12.7216H26.8092V13.3216H12.3116V12.7216ZM11.7116 13.3216C11.7116 12.9902 11.9802 12.7216 12.3116 12.7216V13.3216V13.3216H11.7116ZM11.7116 27.6229V13.3216H12.3116V27.6229H11.7116ZM12.3116 28.2229C11.9802 28.2229 11.7116 27.9543 11.7116 27.6229H12.3116V28.2229ZM20.9749 28.2229H12.3116V27.6229H20.9749V28.2229ZM21.5749 27.6229C21.5749 27.9543 21.3063 28.2229 20.9749 28.2229V27.6229H20.9749H21.5749ZM21.5749 21.8001V27.6229H20.9749V21.8001H21.5749ZM26.8091 22.1001H21.2749V21.5001H26.8091V22.1001ZM27.4091 21.5001C27.4091 21.8315 27.1405 22.1001 26.8091 22.1001V21.5001L26.8091 21.5001H27.4091ZM27.4091 13.3217V21.5001H26.8091V13.3217H27.4091ZM26.8092 12.7216C27.1407 12.7216 27.4093 12.9905 27.4091 13.3219L26.8091 13.3215L26.8092 13.3216V12.7216ZM26.5092 13.9216H12.5092V13.3216H26.5092V13.9216ZM26.2092 21.2001V13.6216H26.8092V21.2001H26.2092ZM12.5092 20.9001H26.5092V21.5001H12.5092V20.9001ZM12.8092 13.6216V21.2001H12.2092V13.6216H12.8092ZM12.6116 21.5229H20.6666V22.1229H12.6116V21.5229ZM12.3116 27.3229V21.8229H12.9116V27.3229H12.3116ZM20.6666 27.6229H12.6116V27.0229H20.6666V27.6229ZM20.9666 21.8229V27.3229H20.3666V21.8229H20.9666Z" fill="#0F6E94"/>
</svg>
