<svg width="40" height="40" viewBox="0 0 40 40" fill="none" xmlns="http://www.w3.org/2000/svg">
<rect width="40" height="40" rx="14" fill="#E1F6FF"/>
<path fill-rule="evenodd" clip-rule="evenodd" d="M27.1884 27.9784H12.6908C12.5251 27.9784 12.3908 27.844 12.3909 27.6783V19.4999C12.3909 19.3342 12.5252 19.1999 12.6909 19.1999H18.2251V13.3771C18.2251 13.2114 18.3594 13.0771 18.5251 13.0771H27.1884C27.3541 13.0771 27.4884 13.2114 27.4884 13.3771V27.6784C27.4884 27.8441 27.3541 27.9784 27.1884 27.9784ZM12.9908 27.3784H18.2379V19.7999H12.9908V27.3784ZM26.8884 27.3784H18.8884V23.3598H26.8884V27.3784ZM18.8334 22.6771H26.8884V13.6771H18.8334V22.6771Z" fill="#0F6E94"/>
<path d="M12.3909 27.6783H12.6909V27.6785L12.3909 27.6783ZM18.2251 19.1999H18.5251V19.4999H18.2251V19.1999ZM18.2379 27.3784H18.5379V27.6784H18.2379V27.3784ZM12.9908 27.3784V27.6784H12.6908V27.3784H12.9908ZM18.2379 19.7999V19.4999H18.5379V19.7999H18.2379ZM12.9908 19.7999H12.6908V19.4999H12.9908V19.7999ZM18.8884 27.3784V27.6784H18.5884V27.3784H18.8884ZM26.8884 27.3784H27.1884V27.6784H26.8884V27.3784ZM18.8884 23.3598H18.5884V23.0598H18.8884V23.3598ZM26.8884 23.3598V23.0598H27.1884V23.3598H26.8884ZM26.8884 22.6771H27.1884V22.9771H26.8884V22.6771ZM18.8334 22.6771V22.9771H18.5334V22.6771H18.8334ZM26.8884 13.6771V13.3771H27.1884V13.6771H26.8884ZM18.8334 13.6771H18.5334V13.3771H18.8334V13.6771ZM12.6908 27.6784H27.1884V28.2784H12.6908V27.6784ZM12.6909 27.6785L12.6908 27.6784V28.2784C12.3593 28.2784 12.0907 28.0095 12.0909 27.6781L12.6909 27.6785ZM12.6909 19.4999V27.6783H12.0909V19.4999H12.6909ZM12.6909 19.4999H12.0909C12.0909 19.1685 12.3595 18.8999 12.6909 18.8999V19.4999ZM18.2251 19.4999H12.6909V18.8999H18.2251V19.4999ZM18.5251 13.3771V19.1999H17.9251V13.3771H18.5251ZM18.5251 13.3771H17.9251C17.9251 13.0457 18.1937 12.7771 18.5251 12.7771V13.3771ZM27.1884 13.3771H18.5251V12.7771H27.1884V13.3771ZM27.1884 13.3771V12.7771C27.5198 12.7771 27.7884 13.0457 27.7884 13.3771H27.1884ZM27.1884 27.6784V13.3771H27.7884V27.6784H27.1884ZM27.1884 27.6784H27.7884C27.7884 28.0098 27.5198 28.2784 27.1884 28.2784V27.6784ZM18.2379 27.6784H12.9908V27.0784H18.2379V27.6784ZM18.5379 19.7999V27.3784H17.9379V19.7999H18.5379ZM12.9908 19.4999H18.2379V20.0999H12.9908V19.4999ZM12.6908 27.3784V19.7999H13.2908V27.3784H12.6908ZM18.8884 27.0784H26.8884V27.6784H18.8884V27.0784ZM19.1884 23.3598V27.3784H18.5884V23.3598H19.1884ZM26.8884 23.6598H18.8884V23.0598H26.8884V23.6598ZM26.5884 27.3784V23.3598H27.1884V27.3784H26.5884ZM26.8884 22.9771H18.8334V22.3771H26.8884V22.9771ZM27.1884 13.6771V22.6771H26.5884V13.6771H27.1884ZM18.8334 13.3771H26.8884V13.9771H18.8334V13.3771ZM18.5334 22.6771V13.6771H19.1334V22.6771H18.5334Z" fill="#0F6E94"/>
</svg>
