<svg width="40" height="40" viewBox="0 0 40 40" fill="none" xmlns="http://www.w3.org/2000/svg">
<rect width="40" height="40" rx="14" fill="#E1F6FF"/>
<path fill-rule="evenodd" clip-rule="evenodd" d="M26.8092 27.9784H12.3117C12.1459 27.9784 12.0117 27.8441 12.0117 27.6784V13.3771C12.0117 13.2114 12.1459 13.0771 12.3117 13.0771H20.9749C21.1407 13.0771 21.2749 13.2114 21.2749 13.3771V19.1999H26.8091C26.9748 19.1999 27.1091 19.3342 27.1091 19.4999V27.6783C27.1092 27.844 26.9749 27.9784 26.8092 27.9784ZM15.5151 27.3784H26.5151V19.7828H21.2876V23.3598H15.5151V27.3784ZM14.9149 27.3784H12.6117V23.3598H14.9149V27.3784ZM15.2151 22.7598H20.6622V20.7475C20.6622 20.7288 20.6668 20.7107 20.6751 20.6936V18.7598H12.6117V22.7598H15.2151ZM20.6666 18.1771H12.6117V13.6771H20.6666V18.1771Z" fill="#0F6E94"/>
<path d="M21.2749 19.1999H20.9749V19.4999H21.2749V19.1999ZM27.1091 27.6783H26.8091V27.6785L27.1091 27.6783ZM26.5151 27.3784V27.6784H26.8151V27.3784H26.5151ZM15.5151 27.3784H15.2151V27.6784H15.5151V27.3784ZM26.5151 19.7828H26.8151V19.4828H26.5151V19.7828ZM21.2876 19.7828V19.4828H20.9876V19.7828H21.2876ZM21.2876 23.3598V23.6598H21.5876V23.3598H21.2876ZM15.5151 23.3598V23.0598H15.2151V23.3598H15.5151ZM12.6117 27.3784H12.3117V27.6784H12.6117V27.3784ZM14.9149 27.3784V27.6784H15.2149V27.3784H14.9149ZM12.6117 23.3598V23.0598H12.3117V23.3598H12.6117ZM14.9149 23.3598H15.2149V23.0598H14.9149V23.3598ZM20.6622 22.7598V23.0598H20.9622V22.7598H20.6622ZM20.6751 20.6936L20.9451 20.8243L20.9751 20.7624V20.6936H20.6751ZM20.6751 18.7598H20.9751V18.4598H20.6751V18.7598ZM12.6117 18.7598V18.4598H12.3117V18.7598H12.6117ZM12.6117 22.7598H12.3117V23.0598H12.6117V22.7598ZM12.6117 18.1771H12.3117V18.4771H12.6117V18.1771ZM20.6666 18.1771V18.4771H20.9666V18.1771H20.6666ZM12.6117 13.6771V13.3771H12.3117V13.6771H12.6117ZM20.6666 13.6771H20.9666V13.3771H20.6666V13.6771ZM12.3117 28.2784H26.8092V27.6784H12.3117V28.2784ZM11.7117 27.6784C11.7117 28.0098 11.9803 28.2784 12.3117 28.2784V27.6784H11.7117ZM11.7117 13.3771V27.6784H12.3117V13.3771H11.7117ZM12.3117 12.7771C11.9803 12.7771 11.7117 13.0457 11.7117 13.3771H12.3117V12.7771ZM20.9749 12.7771H12.3117V13.3771H20.9749V12.7771ZM21.5749 13.3771C21.5749 13.0457 21.3063 12.7771 20.9749 12.7771V13.3771H21.5749ZM21.5749 19.1999V13.3771H20.9749V19.1999H21.5749ZM26.8091 18.8999H21.2749V19.4999H26.8091V18.8999ZM27.4091 19.4999C27.4091 19.1685 27.1405 18.8999 26.8091 18.8999V19.4999H27.4091ZM27.4091 27.6783V19.4999H26.8091V27.6783H27.4091ZM26.8092 28.2784C27.1407 28.2784 27.4093 28.0095 27.4091 27.6781L26.8091 27.6785L26.8092 27.6784V28.2784ZM26.5151 27.0784H15.5151V27.6784H26.5151V27.0784ZM26.2151 19.7828V27.3784H26.8151V19.7828H26.2151ZM21.2876 20.0828H26.5151V19.4828H21.2876V20.0828ZM21.5876 23.3598V19.7828H20.9876V23.3598H21.5876ZM15.5151 23.6598H21.2876V23.0598H15.5151V23.6598ZM15.8151 27.3784V23.3598H15.2151V27.3784H15.8151ZM12.6117 27.6784H14.9149V27.0784H12.6117V27.6784ZM12.3117 23.3598V27.3784H12.9117V23.3598H12.3117ZM14.9149 23.0598H12.6117V23.6598H14.9149V23.0598ZM15.2149 27.3784V23.3598H14.6149V27.3784H15.2149ZM20.6622 22.4598H15.2151V23.0598H20.6622V22.4598ZM20.3622 20.7475V22.7598H20.9622V20.7475H20.3622ZM20.405 20.5629C20.3792 20.6163 20.3622 20.6788 20.3622 20.7475H20.9622C20.9622 20.7788 20.9544 20.8051 20.9451 20.8243L20.405 20.5629ZM20.3751 18.7598V20.6936H20.9751V18.7598H20.3751ZM12.6117 19.0598H20.6751V18.4598H12.6117V19.0598ZM12.9117 22.7598V18.7598H12.3117V22.7598H12.9117ZM15.2151 22.4598H12.6117V23.0598H15.2151V22.4598ZM12.6117 18.4771H20.6666V17.8771H12.6117V18.4771ZM12.3117 13.6771V18.1771H12.9117V13.6771H12.3117ZM20.6666 13.3771H12.6117V13.9771H20.6666V13.3771ZM20.9666 18.1771V13.6771H20.3666V18.1771H20.9666Z" fill="#0F6E94"/>
</svg>
