<svg width="40" height="40" viewBox="0 0 40 40" fill="none" xmlns="http://www.w3.org/2000/svg">
<rect width="40" height="40" rx="14" fill="#E1F6FF"/>
<path fill-rule="evenodd" clip-rule="evenodd" d="M12.3116 27.9784H26.8092C26.9749 27.9784 27.1092 27.844 27.1091 27.6783V19.4999C27.1091 19.3342 26.9748 19.1999 26.8091 19.1999H21.2749V13.3771C21.2749 13.2114 21.1406 13.0771 20.9749 13.0771H12.3116C12.1459 13.0771 12.0116 13.2114 12.0116 13.3771V27.6784C12.0116 27.8441 12.1459 27.9784 12.3116 27.9784ZM26.5092 27.3784H21.2621V19.7999H26.5092V27.3784ZM15.515 27.3784H20.6622V23.3598H15.515V27.3784ZM14.9149 27.3784H12.6116V23.3598H14.9149V27.3784ZM15.215 22.7598H20.6622V19.4999C20.6622 19.4695 20.6667 19.4403 20.675 19.4125V16.2798H12.6116V22.7598H15.215ZM20.6116 15.6798H12.6116V13.6771H20.6116V15.6798Z" fill="#0F6E94"/>
<path d="M27.1091 27.6783H26.8091V27.6785L27.1091 27.6783ZM21.2749 19.1999H20.9749V19.4999H21.2749V19.1999ZM21.2621 27.3784H20.9621V27.6784H21.2621V27.3784ZM26.5092 27.3784V27.6784H26.8092V27.3784H26.5092ZM21.2621 19.7999V19.4999H20.9621V19.7999H21.2621ZM26.5092 19.7999H26.8092V19.4999H26.5092V19.7999ZM20.6622 27.3784V27.6784H20.9622V27.3784H20.6622ZM15.515 27.3784H15.215V27.6784H15.515V27.3784ZM20.6622 23.3598H20.9622V23.0598H20.6622V23.3598ZM15.515 23.3598V23.0598H15.215V23.3598H15.515ZM12.6116 27.3784H12.3116V27.6784H12.6116V27.3784ZM14.9149 27.3784V27.6784H15.2149V27.3784H14.9149ZM12.6116 23.3598V23.0598H12.3116V23.3598H12.6116ZM14.9149 23.3598H15.2149V23.0598H14.9149V23.3598ZM20.6622 22.7598V23.0598H20.9622V22.7598H20.6622ZM20.675 19.4125L20.9625 19.4984L20.975 19.4564V19.4125H20.675ZM20.675 16.2798H20.975V15.9798H20.675V16.2798ZM12.6116 16.2798V15.9798H12.3116V16.2798H12.6116ZM12.6116 22.7598H12.3116V23.0598H12.6116V22.7598ZM12.6116 15.6798H12.3116V15.9798H12.6116V15.6798ZM20.6116 15.6798V15.9798H20.9116V15.6798H20.6116ZM12.6116 13.6771V13.3771H12.3116V13.6771H12.6116ZM20.6116 13.6771H20.9116V13.3771H20.6116V13.6771ZM26.8092 27.6784H12.3116V28.2784H26.8092V27.6784ZM26.8091 27.6785L26.8092 27.6784V28.2784C27.1407 28.2784 27.4093 28.0095 27.4091 27.6781L26.8091 27.6785ZM26.8091 19.4999V27.6783H27.4091V19.4999H26.8091ZM26.8091 19.4999H27.4091C27.4091 19.1685 27.1405 18.8999 26.8091 18.8999V19.4999ZM21.2749 19.4999H26.8091V18.8999H21.2749V19.4999ZM20.9749 13.3771V19.1999H21.5749V13.3771H20.9749ZM20.9749 13.3771H21.5749C21.5749 13.0457 21.3063 12.7771 20.9749 12.7771V13.3771ZM12.3116 13.3771H20.9749V12.7771H12.3116V13.3771ZM12.3116 13.3771V12.7771C11.9802 12.7771 11.7116 13.0457 11.7116 13.3771H12.3116ZM12.3116 27.6784V13.3771H11.7116V27.6784H12.3116ZM12.3116 27.6784H11.7116C11.7116 28.0098 11.9802 28.2784 12.3116 28.2784V27.6784ZM21.2621 27.6784H26.5092V27.0784H21.2621V27.6784ZM20.9621 19.7999V27.3784H21.5621V19.7999H20.9621ZM26.5092 19.4999H21.2621V20.0999H26.5092V19.4999ZM26.8092 27.3784V19.7999H26.2092V27.3784H26.8092ZM20.6622 27.0784H15.515V27.6784H20.6622V27.0784ZM20.3622 23.3598V27.3784H20.9622V23.3598H20.3622ZM15.515 23.6598H20.6622V23.0598H15.515V23.6598ZM15.815 27.3784V23.3598H15.215V27.3784H15.815ZM12.6116 27.6784H14.9149V27.0784H12.6116V27.6784ZM12.3116 23.3598V27.3784H12.9116V23.3598H12.3116ZM14.9149 23.0598H12.6116V23.6598H14.9149V23.0598ZM15.2149 27.3784V23.3598H14.6149V27.3784H15.2149ZM20.6622 22.4598H15.215V23.0598H20.6622V22.4598ZM20.3622 19.4999V22.7598H20.9622V19.4999H20.3622ZM20.3876 19.3267C20.3713 19.3811 20.3622 19.4393 20.3622 19.4999H20.9622C20.9622 19.4998 20.9622 19.4994 20.9625 19.4984L20.3876 19.3267ZM20.375 16.2798V19.4125H20.975V16.2798H20.375ZM12.6116 16.5798H20.675V15.9798H12.6116V16.5798ZM12.9116 22.7598V16.2798H12.3116V22.7598H12.9116ZM15.215 22.4598H12.6116V23.0598H15.215V22.4598ZM12.6116 15.9798H20.6116V15.3798H12.6116V15.9798ZM12.3116 13.6771V15.6798H12.9116V13.6771H12.3116ZM20.6116 13.3771H12.6116V13.9771H20.6116V13.3771ZM20.9116 15.6798V13.6771H20.3116V15.6798H20.9116Z" fill="#0F6E94"/>
</svg>
