<svg width="40" height="40" viewBox="0 0 40 40" fill="none" xmlns="http://www.w3.org/2000/svg">
<rect width="40" height="40" rx="14" fill="#E1F6FF"/>
<path fill-rule="evenodd" clip-rule="evenodd" d="M26.8878 26.7065V26.3055L26.8878 25.0445V25.041C26.8879 22.0548 26.888 19.0686 26.8905 16.0824C26.8906 15.9931 26.8577 15.9522 26.7833 15.9153C25.8239 15.4383 24.8651 14.9599 23.9084 14.4775C23.8238 14.4348 23.7608 14.4413 23.6805 14.4818C22.727 14.9614 21.7725 15.439 20.8163 15.9132C20.7325 15.9548 20.7102 16.0054 20.7105 16.0942C20.7132 16.8691 20.713 17.6441 20.7128 18.4191V18.4198L20.7127 18.9181L20.7127 19.7192C20.7128 22.0089 20.7128 24.2987 20.7105 26.5884C20.7104 26.6853 20.738 26.7256 20.8347 26.7153C20.8523 26.7134 20.8702 26.7145 20.8881 26.7156C20.899 26.7163 20.91 26.717 20.9209 26.717C22.8488 26.7171 24.7766 26.7172 26.7044 26.7167C26.742 26.7166 26.7796 26.7139 26.8211 26.7109C26.8422 26.7094 26.8642 26.7078 26.8878 26.7065ZM19.4414 21.3218L19.4414 20.461C19.4413 19.001 19.4413 17.5409 19.4431 16.0808C19.4432 15.9956 19.4173 15.9504 19.3388 15.9114C18.3911 15.4413 17.4447 14.9687 16.5007 14.4912C16.3972 14.4389 16.319 14.4415 16.2168 14.4932C15.2757 14.9689 14.3324 15.4402 13.3877 15.9087C13.298 15.9532 13.2631 16.0033 13.2635 16.1054C13.2665 16.8845 13.2662 17.6635 13.266 18.4426V18.4426V18.4426V18.4426V18.4426V18.4426V18.4426V18.4426V18.4426V18.4426V18.4426V18.4426V18.4426V18.4427V18.4427V18.4427L13.2658 19.1014L13.2658 20.7453V20.7453V20.7453V20.7453V20.7453V20.7453V20.7453V20.7453V20.7453V20.7453V20.7453V20.7453V20.7453V20.7453V20.7453V20.7454C13.2658 22.6632 13.2658 24.5811 13.266 26.4989C13.266 26.5193 13.2658 26.5379 13.2657 26.5547C13.2651 26.6391 13.2647 26.68 13.285 26.6996C13.3042 26.7181 13.3417 26.7175 13.4145 26.7164H13.4146C13.4355 26.7161 13.4594 26.7157 13.4865 26.7157C14.954 26.7177 16.4215 26.7175 17.889 26.7174L19.2576 26.7173H19.2582C19.4412 26.7173 19.4414 26.7173 19.4414 26.5381V21.3218ZM20.0699 27.9832L18.7927 27.9832H18.7907C16.7587 27.9831 14.7267 27.9829 12.6946 27.9857C12.5704 27.9859 12.4735 27.9647 12.3958 27.8613C12.3344 27.7795 12.2654 27.7009 12.1882 27.6341C12.0347 27.501 12.0021 27.3365 12.0026 27.1406C12.006 25.5717 12.0058 24.0027 12.0056 22.4338C12.0055 21.7998 12.0054 21.1658 12.0056 20.5318C12.0057 19.987 12.0061 19.4423 12.0064 18.8975C12.0072 17.7079 12.008 16.5183 12.0063 15.3287C12.0061 15.2154 12.0389 15.1561 12.1427 15.1045L12.556 14.8994L12.5561 14.8994C13.7186 14.3227 14.8812 13.7459 16.0352 13.1525C16.2759 13.0286 16.4519 13.0361 16.687 13.1572C17.4217 13.5358 18.1613 13.9047 18.901 14.2737L18.9011 14.2737L18.9011 14.2737L18.9011 14.2737L18.9011 14.2738C19.2636 14.4545 19.626 14.6353 19.9878 14.8172C20.0554 14.8512 20.1068 14.8453 20.1698 14.8137C20.6236 14.5862 21.0775 14.3591 21.5314 14.1321L21.5317 14.1319L21.5332 14.1311L21.5334 14.131L21.5334 14.131C22.2463 13.7743 22.9592 13.4177 23.6714 13.0597C23.7564 13.017 23.8227 13.0119 23.9111 13.0564C24.7596 13.4836 25.6096 13.908 26.4595 14.3324L26.4595 14.3324L27.1893 14.6968C27.2764 14.7403 27.3633 14.7842 27.4502 14.828L27.4503 14.828L27.4505 14.8281L27.4505 14.8281L27.4505 14.8281C27.6491 14.9282 27.8477 15.0284 28.048 15.1247C28.1263 15.1624 28.1553 15.2101 28.1552 15.2953C28.1534 16.2615 28.1533 17.2278 28.1533 18.1941L28.1532 18.8221L28.1526 22.2257L28.1524 26.2953C28.1525 26.3794 28.1521 26.4634 28.1517 26.5475V26.5477C28.1506 26.7678 28.1496 26.9878 28.1559 27.2077C28.16 27.348 28.1314 27.4622 28.0286 27.5629C27.9232 27.6662 27.826 27.7786 27.7318 27.8924C27.674 27.9621 27.6095 27.9852 27.5191 27.9851C25.5597 27.9831 23.6002 27.9831 21.6408 27.9832L20.5632 27.9832H20.0699ZM15.7523 17.4355C15.7523 17.4855 15.7522 17.5356 15.752 17.5856C15.7515 17.712 15.7511 17.8383 15.7532 17.9646C15.7545 18.0376 15.7288 18.0667 15.6535 18.0662C15.2966 18.0638 14.9397 18.0639 14.5828 18.0662C14.5104 18.0666 14.4798 18.043 14.4803 17.9674C14.4826 17.6106 14.4824 17.2537 14.4803 16.8969C14.4799 16.8243 14.5061 16.7922 14.5801 16.7924C14.937 16.7937 15.2938 16.7942 15.6506 16.7921C15.734 16.7916 15.7547 16.8315 15.7534 16.9064C15.7512 17.031 15.7516 17.1556 15.752 17.2803V17.2803V17.2803V17.2803V17.2803V17.2803V17.2803V17.2803V17.2803V17.2803V17.2804V17.2804C15.7522 17.3321 15.7524 17.3838 15.7523 17.4355ZM14.4816 24.7167C14.4814 24.7677 14.4813 24.8187 14.4813 24.8698C14.4812 24.9217 14.4815 24.9736 14.4817 25.0255C14.4822 25.1501 14.4827 25.2747 14.48 25.3993C14.4782 25.48 14.5115 25.5082 14.589 25.5079C14.942 25.5061 15.295 25.5064 15.648 25.5075C15.7176 25.5077 15.7537 25.4854 15.7532 25.408C15.751 25.051 15.751 24.6939 15.7533 24.3367C15.7538 24.2615 15.7242 24.2368 15.6511 24.2373C15.2941 24.2396 14.9369 24.2396 14.5798 24.2373C14.5036 24.2368 14.4793 24.2684 14.4804 24.3403C14.4823 24.4658 14.4819 24.5912 14.4816 24.7167V24.7167ZM15.1266 19.2786L15.275 19.2789C15.4023 19.2793 15.5296 19.2797 15.6568 19.2778C15.7239 19.2767 15.7533 19.2993 15.753 19.3697C15.7511 19.7273 15.7508 20.085 15.7533 20.4425C15.7538 20.519 15.7193 20.5444 15.6496 20.5443C15.2961 20.5437 14.9426 20.5435 14.5891 20.5447C14.5127 20.545 14.4792 20.5169 14.4799 20.4353C14.483 20.086 14.4835 19.7365 14.4796 19.3872C14.4786 19.298 14.5139 19.2751 14.5963 19.2772C14.7209 19.2804 14.8457 19.2798 14.9705 19.2791H14.9705H14.9705H14.9705H14.9705H14.9705H14.9705H14.9705H14.9705H14.9705H14.9705H14.9705H14.9705H14.9705C15.0225 19.2789 15.0746 19.2786 15.1266 19.2786ZM14.9578 23.0238C15.009 23.024 15.0602 23.0242 15.1114 23.0242C15.1627 23.0242 15.2141 23.024 15.2654 23.0238C15.3948 23.0232 15.5242 23.0227 15.6535 23.0253C15.7289 23.027 15.7538 22.9982 15.7533 22.9246C15.751 22.5674 15.7512 22.2101 15.7532 21.8529C15.7536 21.7838 15.7251 21.7561 15.6588 21.7562C15.2974 21.7569 14.9361 21.7569 14.5747 21.7568C14.5087 21.7568 14.4801 21.7858 14.4804 21.8545C14.4824 22.2117 14.4827 22.569 14.4802 22.9263C14.4797 23.0014 14.5081 23.0268 14.5816 23.0253C14.707 23.0228 14.8324 23.0233 14.9578 23.0238ZM16.976 20.5366H18.2162V19.2837H16.976V20.5366ZM16.9668 25.2487L16.9668 25.498H18.2151V24.2387L17.9834 24.2386H17.9833C17.6663 24.2383 17.356 24.2381 17.0457 24.2422C17.0195 24.2426 16.9743 24.2919 16.9717 24.3214C16.9646 24.4006 16.9655 24.4805 16.9663 24.5604C16.9666 24.5875 16.9669 24.6146 16.9668 24.6417L16.9668 25.2487ZM18.2246 17.4281C18.2246 17.4793 18.2244 17.5305 18.2241 17.5818C18.2236 17.7072 18.223 17.8326 18.2259 17.9579C18.2277 18.0353 18.206 18.0675 18.1227 18.0667C17.7736 18.0631 17.4245 18.0636 17.0754 18.0664C16.9991 18.067 16.9654 18.0479 16.9663 17.9637C16.97 17.6105 16.9702 17.2573 16.9662 16.9042C16.9651 16.8155 17.0001 16.7911 17.082 16.7917C17.4229 16.7942 17.7638 16.7946 18.1047 16.7915C18.1925 16.7907 18.2301 16.8162 18.2266 16.9108C18.2219 17.0326 18.2228 17.1545 18.2238 17.2764C18.2242 17.327 18.2246 17.3775 18.2246 17.4281ZM16.9822 23.019H18.2239L18.224 22.7955V22.7955V22.7954V22.7954V22.7954V22.7954V22.7953V22.7953V22.7953C18.2243 22.4671 18.2246 22.1466 18.2194 21.8262C18.219 21.8023 18.154 21.7596 18.1186 21.7591C17.8987 21.7559 17.6788 21.7559 17.4588 21.7559C17.3301 21.7559 17.2013 21.7559 17.0726 21.7553C16.9945 21.7549 16.9656 21.784 16.9663 21.8645C16.9686 22.095 16.9685 22.3254 16.9683 22.556V22.5561C16.9683 22.6824 16.9682 22.8087 16.9686 22.935C16.9686 22.9532 16.9725 22.9714 16.9765 22.9905L16.9766 22.9905C16.9785 22.9997 16.9805 23.0092 16.9822 23.019ZM25.6712 17.4267C25.6712 17.4771 25.671 17.5275 25.6708 17.5779C25.6702 17.7043 25.6697 17.8307 25.6723 17.957C25.674 18.0339 25.6521 18.0674 25.5687 18.0666C25.2152 18.0632 24.8617 18.0635 24.5082 18.0665C24.4282 18.0672 24.3991 18.0387 24.3996 17.9592C24.402 17.6058 24.402 17.2523 24.3996 16.8988C24.399 16.8167 24.4356 16.7917 24.5115 16.7921C24.8609 16.7938 25.2103 16.7943 25.5597 16.7918C25.6453 16.7912 25.675 16.8243 25.6726 16.909C25.6693 17.0304 25.67 17.1519 25.6707 17.2735V17.2735V17.2735V17.2736V17.2736V17.2736V17.2736V17.2736C25.6709 17.3246 25.6712 17.3757 25.6712 17.4267ZM24.4009 19.7645C24.4007 19.8136 24.4005 19.8627 24.4005 19.9118C24.4005 19.9621 24.4007 20.0124 24.401 20.0627V20.0628C24.4016 20.1848 24.4023 20.3069 24.3991 20.4289C24.3969 20.5126 24.4247 20.5465 24.5112 20.5458C24.86 20.5428 25.2088 20.5433 25.5575 20.5455C25.6394 20.546 25.6739 20.5198 25.6729 20.4318C25.6688 20.0831 25.6696 19.7342 25.6724 19.3855C25.673 19.3076 25.65 19.2764 25.5677 19.2772C25.2149 19.2806 24.862 19.2811 24.5091 19.2769C24.4179 19.2758 24.3978 19.3149 24.3994 19.3948C24.4019 19.5181 24.4014 19.6413 24.4009 19.7645ZM21.9296 19.2783H22.6083C22.6548 19.2783 22.7013 19.2786 22.7478 19.2789L22.748 19.279C22.8576 19.2798 22.9671 19.2805 23.0765 19.2771C23.159 19.2745 23.1964 19.299 23.1958 19.3867C23.1931 19.74 23.1936 20.0932 23.1956 20.4464C23.196 20.5228 23.1612 20.5456 23.0904 20.5453C22.8228 20.544 22.5552 20.5441 22.2876 20.5443L22.0307 20.5444C21.9724 20.5444 21.928 20.5365 21.9285 20.4584C21.9303 20.1751 21.93 19.8919 21.9298 19.5995V19.5994V19.5992V19.5991V19.599V19.5988L21.9296 19.2783ZM21.9357 24.2376V25.489C21.9454 25.492 21.9531 25.4948 21.9595 25.4972L21.9596 25.4972C21.9704 25.5012 21.9777 25.5038 21.985 25.5039C22.1246 25.5044 22.2643 25.5047 22.4039 25.505C22.6383 25.5055 22.8727 25.506 23.1071 25.5074C23.182 25.5079 23.195 25.465 23.1949 25.4043L23.1948 25.3198C23.1943 24.9944 23.1939 24.669 23.1953 24.3437C23.1957 24.2654 23.166 24.2348 23.0854 24.2368C22.9587 24.2398 22.8319 24.2391 22.7051 24.2383C22.651 24.238 22.5969 24.2377 22.5428 24.2376L22.1127 24.2376L21.9357 24.2376ZM25.0357 24.2382C25.0864 24.2382 25.1371 24.2385 25.1877 24.2387H25.1878H25.1878H25.1878C25.3135 24.2393 25.4393 24.2399 25.565 24.237C25.6443 24.2351 25.6732 24.2626 25.6725 24.3432C25.6694 24.696 25.6693 25.049 25.6725 25.4018C25.6732 25.4847 25.6381 25.5082 25.5623 25.5078C25.2136 25.5061 24.8648 25.5058 24.5161 25.508C24.4327 25.5085 24.3987 25.4778 24.3994 25.3923C24.4022 25.0435 24.4026 24.6947 24.3993 24.346C24.3984 24.256 24.4383 24.2351 24.5187 24.237C24.641 24.2398 24.7634 24.2392 24.8857 24.2387H24.8858H24.8858C24.9358 24.2384 24.9858 24.2382 25.0357 24.2382ZM21.9299 17.8357L21.93 18.0643L22.1499 18.0644C22.4826 18.0646 22.8051 18.0648 23.1276 18.0607C23.15 18.0604 23.1906 18.0085 23.1909 17.9802C23.1952 17.6151 23.1959 17.2498 23.1899 16.8847C23.1894 16.8539 23.135 16.798 23.1049 16.7975C22.7398 16.7914 22.3745 16.7922 22.0093 16.7967C21.9826 16.7971 21.9336 16.84 21.9333 16.8637C21.9295 17.1838 21.9297 17.5041 21.9299 17.8355V17.8356V17.8357ZM25.6711 22.3957C25.6711 22.4464 25.6709 22.4971 25.6707 22.5479C25.6702 22.6737 25.6697 22.7995 25.6723 22.9253C25.6739 22.9995 25.6481 23.026 25.573 23.0254C25.2158 23.0227 24.8585 23.0228 24.5014 23.0253C24.4272 23.0258 24.3994 22.9993 24.3998 22.9254C24.4018 22.5682 24.4016 22.211 24.4 21.8539C24.3997 21.7853 24.4295 21.7566 24.4954 21.7566C24.8567 21.7569 25.2179 21.757 25.5792 21.7563C25.6463 21.7562 25.6732 21.7854 25.6722 21.8539C25.67 21.9832 25.6704 22.1126 25.6708 22.242C25.671 22.2932 25.6711 22.3445 25.6711 22.3957ZM21.9797 21.7628C21.9662 21.7644 21.9525 21.7661 21.9385 21.7674V23.0243C22.0434 23.0243 22.1476 23.0241 22.2513 23.0238C22.5265 23.0232 22.7978 23.0225 23.069 23.0266C23.1683 23.028 23.1972 22.9934 23.1962 22.8998C23.193 22.5629 23.1922 22.2259 23.1967 21.889C23.198 21.7869 23.161 21.7527 23.0604 21.754C22.8438 21.7568 22.6272 21.7565 22.4106 21.7562C22.2944 21.756 22.1781 21.7558 22.0618 21.7561C22.0348 21.7562 22.0077 21.7594 21.9797 21.7628Z" fill="#0F6E94"/>
</svg>
