<svg width="15" height="8" viewBox="0 0 15 8" fill="none" xmlns="http://www.w3.org/2000/svg">
<path fill-rule="evenodd" clip-rule="evenodd" d="M13.1849 1.02791C12.2301 1.02791 11.3223 1.02841 10.4145 1.02699C10.3386 1.02685 10.2594 1.02586 10.1875 1.00512C9.94006 0.933682 9.79713 0.713434 9.82814 0.466355C9.85858 0.223523 10.0559 0.0424256 10.3132 0.0370451C10.6317 0.0303902 10.9503 0.0341425 11.2688 0.0340717C12.2832 0.0338593 13.2977 0.0337177 14.3122 0.0341425C14.7095 0.034284 14.9026 0.223594 14.9028 0.614744C14.9034 1.94182 14.904 3.26883 14.9022 4.59591C14.9018 4.87428 14.7188 5.08448 14.4662 5.11166C14.214 5.13871 13.9827 4.97821 13.9251 4.72866C13.9095 4.66083 13.9117 4.5882 13.9117 4.51768C13.9109 3.6037 13.9112 2.68979 13.9112 1.73935C13.8534 1.78777 13.815 1.81574 13.7817 1.84873C12.3967 3.21609 11.0118 4.58338 9.62799 5.95202C9.27118 6.30487 9.10743 6.32002 8.69433 6.02579C7.55606 5.21496 6.41787 4.40398 5.27939 3.59336C5.22757 3.55641 5.17391 3.52207 5.15451 3.50905C4.81405 3.83188 4.47968 4.13035 4.1664 4.44958C3.08824 5.54805 2.01752 6.65397 0.943605 7.75669C0.720171 7.98614 0.409304 8.00582 0.202649 7.80575C-0.00343974 7.60632 0.00810008 7.29517 0.232666 7.06444C1.70495 5.55103 3.17759 4.03804 4.65022 2.52505C4.88456 2.28434 5.12442 2.26416 5.40775 2.46579C6.57051 3.29319 7.7344 4.11889 8.89214 4.95308C9.03734 5.05772 9.11755 5.06827 9.25412 4.93198C10.5103 3.67768 11.7754 2.4323 13.0376 1.18409C13.078 1.14402 13.1159 1.10126 13.1849 1.02791Z" fill="#C9222F"/>
</svg>
