<svg width="15" height="8" viewBox="0 0 15 8" fill="none" xmlns="http://www.w3.org/2000/svg">
<path fill-rule="evenodd" clip-rule="evenodd" d="M13.1849 6.97209C12.2301 6.97209 11.3223 6.97159 10.4145 6.97301C10.3386 6.97315 10.2594 6.97414 10.1875 6.99488C9.94006 7.06632 9.79713 7.28657 9.82814 7.53365C9.85858 7.77648 10.0559 7.95757 10.3132 7.96295C10.6317 7.96961 10.9503 7.96586 11.2688 7.96593C12.2832 7.96614 13.2977 7.96628 14.3122 7.96586C14.7095 7.96572 14.9026 7.77641 14.9028 7.38526C14.9034 6.05818 14.904 4.73117 14.9022 3.40409C14.9018 3.12572 14.7188 2.91552 14.4662 2.88834C14.214 2.86129 13.9827 3.02179 13.9251 3.27134C13.9095 3.33917 13.9117 3.4118 13.9117 3.48232C13.9109 4.3963 13.9112 5.31021 13.9112 6.26065C13.8534 6.21223 13.815 6.18426 13.7817 6.15127C12.3967 4.78391 11.0118 3.41662 9.62799 2.04798C9.27118 1.69513 9.10743 1.67998 8.69433 1.97421C7.55606 2.78504 6.41787 3.59602 5.27939 4.40664C5.22757 4.44359 5.17391 4.47793 5.15451 4.49095C4.81405 4.16812 4.47968 3.86965 4.1664 3.55042C3.08824 2.45195 2.01752 1.34603 0.943605 0.243309C0.720171 0.0138578 0.409304 -0.00582409 0.202649 0.194247C-0.00343974 0.393681 0.00810008 0.704831 0.232666 0.935557C1.70495 2.44897 3.17759 3.96196 4.65022 5.47495C4.88456 5.71566 5.12442 5.73584 5.40775 5.53421C6.57051 4.70681 7.7344 3.88111 8.89214 3.04692C9.03734 2.94228 9.11755 2.93173 9.25412 3.06802C10.5103 4.32232 11.7754 5.5677 13.0376 6.81591C13.078 6.85598 13.1159 6.89874 13.1849 6.97209Z" fill="#26C579"/>
</svg>
