<svg width="40" height="40" viewBox="0 0 40 40" fill="none" xmlns="http://www.w3.org/2000/svg">
<rect opacity="0.1" width="40" height="40" rx="14" fill="black"/>
<path fill-rule="evenodd" clip-rule="evenodd" d="M15.0177 19.423H19.2781C19.2781 19.1754 19.2832 18.9379 19.2769 18.7007C19.2665 18.3058 18.9733 18.0064 18.5745 18.0036C17.6197 17.9968 16.6649 17.9976 15.71 18.0032C15.3597 18.0053 15.0657 18.2444 15.0243 18.5878C14.9916 18.8593 15.0177 19.1379 15.0177 19.423ZM20.7025 19.423H24.9758C24.9758 19.1696 24.9844 18.9262 24.9738 18.6836C24.9569 18.2949 24.6638 18.006 24.2713 18.0034C23.3161 17.997 22.3607 17.9965 21.4055 18.0036C21.0251 18.0065 20.7241 18.299 20.7049 18.6718C20.6924 18.9152 20.7025 19.1598 20.7025 19.423ZM27.8297 19.425C27.8297 19.3525 27.8298 19.2926 27.8297 19.2327C27.8296 17.8996 27.8297 16.5664 27.8292 15.2333C27.829 14.7326 27.5446 14.4442 27.0481 14.4441C22.3432 14.4437 17.6384 14.4437 12.9336 14.4441C12.4436 14.4442 12.1601 14.7292 12.1596 15.2193C12.1586 16.2302 12.1583 17.2411 12.1578 18.252C12.1576 18.6393 12.1578 19.0265 12.1578 19.4234H13.5846C13.5846 19.3539 13.5829 19.2942 13.5849 19.2346C13.5944 18.9408 13.5687 18.6404 13.6215 18.3545C13.8188 17.2844 14.6812 16.5848 15.7803 16.5794C16.5913 16.5753 17.4025 16.5915 18.213 16.5745C18.873 16.5606 19.4823 16.674 19.9925 17.14C20.4952 16.6792 21.0933 16.5617 21.7434 16.5747C22.5485 16.5908 23.3541 16.5766 24.1595 16.5802C24.3199 16.5809 24.4833 16.5871 24.64 16.618C25.6917 16.8252 26.3932 17.681 26.4007 18.7564C26.4023 18.9766 26.401 19.1968 26.401 19.425H27.8297ZM27.8305 25.1377V26.5472H28.5403V26.3557C28.5403 24.7836 28.5405 23.2116 28.5403 21.6396C28.5402 21.1402 28.2579 20.8558 27.7566 20.855C26.7735 20.8536 25.7903 20.8544 24.8071 20.8544C20.6079 20.8545 16.4087 20.8542 12.2095 20.8551C11.7316 20.8552 11.4445 21.1449 11.4441 21.6249C11.443 23.208 11.4436 24.7912 11.4441 26.3743C11.4441 26.4327 11.4503 26.4911 11.4534 26.5453H12.1687V25.1377H27.8305ZM29.9563 27.9632H26.4085V26.567H13.5875V27.957H10.0253V27.7812C10.0253 25.726 10.0277 23.6706 10.0239 21.6154C10.0227 21.0117 10.2339 20.5022 10.6463 20.0662C10.6989 20.0107 10.7307 19.9124 10.7309 19.8338C10.7358 18.2896 10.7343 16.7454 10.7346 15.2013C10.7349 13.9682 11.6738 13.0255 12.9037 13.0254C17.6309 13.0248 22.3581 13.0248 27.0853 13.0254C28.3066 13.0255 29.2465 13.9664 29.2473 15.1891C29.2483 16.7277 29.2488 18.2663 29.2451 19.8049C29.2447 19.9314 29.2829 20.0202 29.3706 20.1113C29.748 20.5031 29.9582 20.976 29.9599 21.52C29.9667 23.6308 29.9627 25.7415 29.9624 27.8522C29.9624 27.8847 29.9589 27.9171 29.9563 27.9632Z" fill="black"/>
</svg>
