<svg width="40" height="40" viewBox="0 0 40 40" fill="none" xmlns="http://www.w3.org/2000/svg">
<rect width="40" height="40" rx="14" fill="#E1F6FF"/>
<path fill-rule="evenodd" clip-rule="evenodd" d="M20.0671 26.7629V26.7602L20.3337 26.7601L20.867 26.7602L21.5739 26.7606C22.7955 26.7612 24.0171 26.7618 25.2387 26.7646C25.3267 26.7648 25.3561 26.7421 25.3554 26.6506C25.3507 26.043 25.3507 25.4353 25.3508 24.8276C25.3513 23.0975 25.3519 21.3674 25.3552 19.6373C25.3554 19.5552 25.3309 19.4985 25.2715 19.4442C24.9102 19.1134 24.5502 18.7812 24.1902 18.449L24.1897 18.4486L23.9037 18.1847L21.7849 16.2304L21.4641 15.9346L21.4639 15.9343C21.0218 15.5266 20.5797 15.119 20.1393 14.7094C20.0805 14.6547 20.0464 14.656 19.988 14.7102C19.1729 15.4676 18.3559 16.2231 17.5383 16.9778C16.6502 17.7976 15.7616 18.617 14.8709 19.4338C14.8032 19.4959 14.7773 19.558 14.7774 19.6491C14.7795 21.6417 14.7794 23.6342 14.7793 25.6268L14.7793 26.6358C14.7793 26.7628 14.7794 26.7629 14.9047 26.7629L20.0671 26.7629ZM13.5799 20.6289L12.8164 21.3323L12.0058 20.4548L12.1933 20.2808L12.1935 20.2807C12.338 20.1467 12.4793 20.0155 12.6209 19.8846L12.6739 19.8356C13.1364 19.408 13.5989 18.9803 14.0618 18.5532C14.3006 18.3328 14.5396 18.1127 14.7787 17.8925L14.7789 17.8923C15.0801 17.6149 15.3813 17.3375 15.6821 17.0596C15.9554 16.8072 16.2285 16.5545 16.5015 16.3018C16.8176 16.0092 17.1337 15.7167 17.4502 15.4246C17.789 15.112 18.1282 14.7999 18.4675 14.4878L18.4678 14.4875L18.4686 14.4868C18.7174 14.2579 18.9663 14.029 19.2149 13.7999L19.2479 13.7694C19.499 13.538 19.7502 13.3066 19.9987 13.0724C20.0476 13.0262 20.0778 13.0227 20.1289 13.0701C21.0516 13.9252 21.9758 14.7786 22.9 15.632L22.9003 15.6323L22.9011 15.6331C23.0524 15.7728 23.2042 15.912 23.3603 16.0552L23.5852 16.2616V15.0025C23.599 15.0011 23.6116 14.9996 23.6234 14.9982C23.6466 14.9954 23.6666 14.993 23.6866 14.993C23.7967 14.9927 23.9068 14.9928 24.0169 14.993H24.017C24.2387 14.9932 24.4604 14.9934 24.682 14.991C24.7604 14.9902 24.7823 15.0175 24.7819 15.0931C24.7789 15.6066 24.7781 16.1201 24.7773 16.6336V16.6343L24.7768 16.9534C24.7768 16.9713 24.7782 16.9894 24.7796 17.0075V17.0075V17.0075C24.7821 17.0395 24.7846 17.0714 24.779 17.1019C24.7419 17.3036 24.8408 17.4299 24.9839 17.5596C25.4721 18.002 25.9555 18.4498 26.4389 18.8976L26.4394 18.898C26.6311 19.0757 26.8229 19.2533 27.015 19.4306C27.3588 19.748 27.7032 20.0646 28.048 20.3811C28.0629 20.3948 28.0797 20.4066 28.0996 20.4206L28.0997 20.4206C28.11 20.4279 28.1213 20.4358 28.1335 20.4448L27.3148 21.3321L26.5522 20.6309C26.5509 20.6455 26.5494 20.6582 26.5481 20.6695C26.5457 20.6903 26.5439 20.7066 26.5439 20.723C26.544 21.3431 26.5442 21.9633 26.5445 22.5835V22.5835C26.5448 23.3275 26.5451 24.0716 26.5451 24.8157C26.5451 25.1387 26.5449 25.4617 26.5447 25.7846L26.5447 25.7887C26.5442 26.4751 26.5438 27.1616 26.5455 27.848C26.5458 27.9383 26.5191 27.9631 26.4305 27.9628C25.8117 27.9607 25.1929 27.961 24.5741 27.9613H24.5733L23.9652 27.9616L19.3136 27.9616H15.3506C14.8048 27.9616 14.259 27.9614 13.7132 27.961C13.5802 27.9609 13.5799 27.9602 13.5799 27.8289L13.5799 20.8141V20.6289ZM18.2864 23.5358L18.2862 23.324C18.2858 23.1342 18.2855 22.9445 18.2877 22.7548C18.2884 22.6889 18.2737 22.6615 18.2007 22.6623C17.8753 22.666 17.5498 22.666 17.2243 22.6623C17.1506 22.6615 17.1372 22.6906 17.1374 22.7555C17.1393 23.2731 17.1394 23.7908 17.1374 24.3084C17.1371 24.3772 17.1521 24.4071 17.2298 24.4061C17.5521 24.402 17.8745 24.4018 18.1968 24.4062C18.276 24.4073 18.2883 24.3751 18.2876 24.3076C18.2855 24.1202 18.2859 23.9328 18.2862 23.7454L18.2864 23.5358ZM19.4871 23.5329L19.4871 25.4862C19.4871 25.6074 19.4868 25.6077 19.3633 25.6078C18.2626 25.6078 17.1618 25.6079 16.061 25.6077C15.9393 25.6077 15.9391 25.6073 15.9391 25.4852L15.9391 24.6831C15.9393 23.6483 15.9395 22.6134 15.9368 21.5785C15.9365 21.4819 15.9654 21.4606 16.0572 21.4608C17.161 21.4638 18.2647 21.4638 19.3685 21.4608C19.4611 21.4606 19.49 21.4837 19.4893 21.5796C19.4862 22.0724 19.4865 22.5652 19.4869 23.058L19.4871 23.5329ZM22.6987 22.6643C22.7947 22.6642 22.8914 22.6642 22.989 22.6642C22.9896 22.6788 22.9904 22.6919 22.9911 22.7041C22.9924 22.7281 22.9935 22.7482 22.9935 22.7683C22.9936 22.9109 22.9935 23.0535 22.9934 23.1961C22.9931 23.5651 22.9928 23.9341 22.9957 24.3031C22.9963 24.387 22.9706 24.4072 22.8904 24.4061C22.5773 24.4019 22.2641 24.4022 21.951 24.406C21.8732 24.4069 21.8415 24.3899 21.8421 24.3041C21.8446 23.9508 21.8444 23.5975 21.8443 23.2442C21.8442 23.0828 21.8441 22.9214 21.8443 22.76C21.8443 22.7547 21.8441 22.7492 21.844 22.7438C21.8428 22.7038 21.8415 22.6633 21.9081 22.6636C22.17 22.6646 22.4319 22.6644 22.6987 22.6643ZM20.6472 23.0853C20.6472 23.235 20.6471 23.3846 20.6471 23.5343C20.6471 23.6918 20.6472 23.8494 20.6473 24.0069C20.6476 24.5004 20.6479 24.9939 20.6452 25.4874C20.6447 25.5774 20.6628 25.6104 20.7613 25.61C21.8682 25.6065 22.975 25.6069 24.0818 25.6096C24.1727 25.6098 24.1966 25.5804 24.1964 25.4924C24.1941 24.1872 24.194 22.8821 24.1966 21.5769C24.1967 21.4884 24.1725 21.4607 24.082 21.4609C22.9722 21.4638 21.8623 21.4638 20.7525 21.4609C20.6643 21.4606 20.645 21.4893 20.6454 21.5719C20.6477 22.0764 20.6475 22.5809 20.6472 23.0853Z" fill="#0F6E94"/>
</svg>
