<svg width="13" height="15" viewBox="0 0 13 15" fill="none" xmlns="http://www.w3.org/2000/svg">
<path fill-rule="evenodd" clip-rule="evenodd" d="M10.8548 2.76358C10.8548 2.51763 10.864 2.29524 10.8527 2.07386C10.8325 1.678 10.5549 1.41481 10.1562 1.41452C7.46963 1.41263 4.78311 1.41271 2.09666 1.41437C1.68072 1.41466 1.40637 1.68604 1.39115 2.10329C1.38543 2.2601 1.39869 2.41785 1.38695 2.57394C1.37557 2.72568 1.43115 2.76792 1.58093 2.76771C4.5934 2.76343 7.60593 2.76401 10.6184 2.76358H10.8548ZM1.39956 9.53973C1.39601 9.61444 1.39043 9.67966 1.39028 9.74473C1.38948 10.3244 1.38753 10.9039 1.39028 11.4835C1.3926 11.9655 1.66079 12.2327 2.14673 12.2329C4.79709 12.2337 7.44745 12.233 10.098 12.231C10.5983 12.2305 10.8522 11.9719 10.8543 11.4673C10.8569 10.8877 10.8565 10.3081 10.8564 9.7285C10.8564 9.6651 10.8498 9.60176 10.8463 9.53973H1.39956ZM10.8471 4.13647H1.40086C1.39622 4.1943 1.39006 4.23575 1.39006 4.2772C1.38948 5.52089 1.39253 6.76466 1.38601 8.00836C1.38506 8.17242 1.46369 8.17713 1.58557 8.17705C4.61035 8.17531 7.63514 8.17437 10.6599 8.1793C10.8239 8.17959 10.8609 8.12836 10.8601 7.97307C10.8543 6.75952 10.857 5.54597 10.8564 4.33242C10.8564 4.26778 10.8504 4.20314 10.8471 4.13647ZM8.83144 13.5976H3.41564C3.41564 13.7209 3.42115 13.8449 3.4147 13.9683C3.39079 14.4266 3.08354 14.8018 2.64753 14.9113C2.21514 15.0198 1.76195 14.8271 1.52659 14.4368C1.38514 14.2021 1.37586 13.9422 1.39122 13.6821C1.40021 13.5287 1.3518 13.4531 1.20789 13.3824C0.450716 13.0105 0.0431794 12.3901 0.0402808 11.5489C0.0293388 8.3914 0.0322374 5.23379 0.0367301 2.07633C0.0383243 0.953502 0.934049 0.0703141 2.07687 0.0600967C3.10919 0.0508938 4.14159 0.0577054 5.17398 0.0579952C6.82825 0.0583576 8.48245 0.0566909 10.1367 0.0608938C11.1331 0.06343 11.9465 0.697633 12.1546 1.63184C12.1909 1.79531 12.208 1.9664 12.2083 2.13401C12.2114 5.25531 12.214 8.37655 12.2083 11.4979C12.2066 12.3856 11.7919 13.0281 10.9867 13.4087C10.8894 13.4548 10.8523 13.509 10.8562 13.6143C10.8616 13.7587 10.8628 13.905 10.8461 14.0481C10.7844 14.5761 10.3354 14.9586 9.81122 14.9384C9.28245 14.9181 8.86419 14.512 8.8326 13.9834C8.82506 13.8584 8.83144 13.7326 8.83144 13.5976Z" fill="black"/>
<path fill-rule="evenodd" clip-rule="evenodd" d="M2.74064 10.2067C3.11868 10.2062 3.4181 10.5066 3.41622 10.8845C3.41426 11.2597 3.10781 11.562 2.73339 11.5577C2.36513 11.5535 2.06883 11.256 2.06564 10.8874C2.06238 10.5129 2.36557 10.2071 2.74064 10.2067Z" fill="black"/>
<path fill-rule="evenodd" clip-rule="evenodd" d="M9.4955 10.2063C9.87463 10.2049 10.1786 10.5027 10.1806 10.8773C10.1825 11.2499 9.87586 11.5581 9.50347 11.5575C9.12949 11.557 8.82999 11.2537 8.82956 10.8751C8.82913 10.5092 9.12934 10.2077 9.4955 10.2063Z" fill="black"/>
</svg>
