<svg width="17" height="17" viewBox="0 0 17 17" fill="none" xmlns="http://www.w3.org/2000/svg">
<path fill-rule="evenodd" clip-rule="evenodd" d="M1.3 15.9012H15.7976C15.9633 15.9012 16.0976 15.7668 16.0974 15.6011V7.42276C16.0974 7.25704 15.9632 7.12276 15.7974 7.12276H10.2633V1.3C10.2633 1.13428 10.129 1 9.96328 1H1.3C1.13428 1 1 1.13428 1 1.3V15.6012C1 15.767 1.13428 15.9012 1.3 15.9012ZM15.4976 15.3012H1.49756L1.62147 1.57193H9.68552V6.72276C9.68552 7.27504 10.1332 7.72276 10.6855 7.72276H15.4976V15.3012Z" fill="#0F6E94"/>
<path d="M16.0974 15.6011L15.7974 15.6011L15.7974 15.6013L16.0974 15.6011ZM10.2633 7.12276H9.96328V7.42276H10.2633V7.12276ZM1.49756 15.3012L1.19757 15.2985L1.19484 15.6012H1.49756V15.3012ZM15.4976 15.3012V15.6012H15.7976V15.3012H15.4976ZM1.62147 1.57193V1.27193H1.32416L1.32148 1.56922L1.62147 1.57193ZM9.68552 1.57193H9.98552V1.27193H9.68552V1.57193ZM15.4976 7.72276H15.7976V7.42276H15.4976V7.72276ZM15.7976 15.6012H1.3V16.2012H15.7976V15.6012ZM15.7974 15.6013L15.7976 15.6012V16.2012C16.1291 16.2012 16.3977 15.9324 16.3974 15.6009L15.7974 15.6013ZM15.7974 7.42276V15.6011H16.3974V7.42276H15.7974ZM15.7974 7.42276L15.7974 7.42276H16.3974C16.3974 7.09135 16.1288 6.82276 15.7974 6.82276V7.42276ZM10.2633 7.42276H15.7974V6.82276H10.2633V7.42276ZM9.96328 1.3V7.12276H10.5633V1.3H9.96328ZM9.96328 1.3H9.96328H10.5633C10.5633 0.968594 10.2947 0.7 9.96328 0.7V1.3ZM1.3 1.3H9.96328V0.7H1.3V1.3ZM1.3 1.3V0.7C0.968595 0.7 0.7 0.968595 0.7 1.3H1.3ZM1.3 15.6012V1.3H0.7V15.6012H1.3ZM1.3 15.6012V15.6012H0.7C0.7 15.9326 0.968594 16.2012 1.3 16.2012V15.6012ZM1.49756 15.6012H15.4976V15.0012H1.49756V15.6012ZM1.32148 1.56922L1.19757 15.2985L1.79755 15.3039L1.92146 1.57463L1.32148 1.56922ZM9.68552 1.27193H1.62147V1.87193H9.68552V1.27193ZM9.98552 6.72276V1.57193H9.38552V6.72276H9.98552ZM10.6855 7.42276C10.2989 7.42276 9.98552 7.10936 9.98552 6.72276H9.38552C9.38552 7.44073 9.96755 8.02276 10.6855 8.02276V7.42276ZM15.4976 7.42276H10.6855V8.02276H15.4976V7.42276ZM15.7976 15.3012V7.72276H15.1976V15.3012H15.7976Z" fill="#0F6E94"/>
</svg>
