<svg width="15" height="14" viewBox="0 0 15 14" fill="none" xmlns="http://www.w3.org/2000/svg">
<path fill-rule="evenodd" clip-rule="evenodd" d="M7.51709 1.15656L7.23666 1.15679C6.97404 1.15713 6.71141 1.15746 6.44883 1.15517C6.37379 1.15452 6.34693 1.17722 6.35006 1.25373C6.35545 1.38576 6.35606 1.51835 6.3499 1.65034C6.34603 1.73337 6.37053 1.76243 6.45698 1.76055C6.63433 1.75676 6.81175 1.75746 6.98919 1.75816C7.05934 1.75844 7.12949 1.75872 7.19964 1.75872L7.54799 1.75854H7.54804C7.88972 1.75827 8.23139 1.758 8.57308 1.76006C8.64755 1.76051 8.67572 1.7394 8.6725 1.66236C8.66716 1.53372 8.66593 1.40451 8.67286 1.27603C8.6778 1.18444 8.65085 1.15281 8.55478 1.15432C8.30429 1.15833 8.05376 1.15769 7.80324 1.15704C7.70785 1.15679 7.61247 1.15655 7.51709 1.15656ZM13.8605 8.35297C13.8518 8.35297 13.8453 8.3527 13.8404 8.35249C13.8324 8.35216 13.8282 8.35198 13.8246 8.35334C13.812 8.35811 13.7999 8.36455 13.788 8.37099C13.4287 8.56432 13.0476 8.65856 12.6371 8.65823C9.21702 8.65513 5.79694 8.65554 2.3769 8.6579C2.02762 8.65811 1.69697 8.59097 1.38156 8.44346C1.33644 8.42237 1.29138 8.40109 1.24307 8.37827L1.16198 8.34001V12.1292H13.8605V8.35297ZM7.50967 2.88938H5.23786L4.42404 2.88952C3.37097 2.88973 2.31791 2.88994 1.26486 2.88845C1.18187 2.88832 1.15383 2.91237 1.15403 2.99793C1.15493 3.40969 1.15437 3.82146 1.15381 4.23324V4.23327C1.15281 4.95914 1.15182 5.68502 1.15884 6.4108C1.1652 7.06407 1.61744 7.52394 2.27593 7.52561C5.76714 7.53462 9.25847 7.53494 12.7498 7.52544C13.4427 7.52361 13.8593 7.02017 13.8632 6.41826C13.8674 5.76323 13.867 5.10817 13.8667 4.45311C13.8664 3.97053 13.8661 3.48793 13.8677 3.00535C13.868 2.90597 13.8323 2.88775 13.7442 2.88828C13.3604 2.89054 12.9765 2.89022 12.5927 2.8899L12.1856 2.88967C10.6269 2.88967 9.06833 2.88967 7.50967 2.88938ZM0.0255675 1.75872H0.169494L5.0705 1.75868C5.21324 1.75868 5.21325 1.75848 5.21685 1.62074L5.21703 1.61353C5.21877 1.54836 5.21889 1.48289 5.21901 1.41739V1.41734C5.21933 1.25142 5.21964 1.08532 5.24606 0.92361C5.33218 0.396042 5.76771 0.0324147 6.30307 0.0285831C7.10793 0.0228359 7.91296 0.0225913 8.71786 0.0285016C9.30906 0.0328223 9.76815 0.479602 9.7997 1.07121C9.80639 1.19765 9.80566 1.3245 9.80492 1.45133V1.45134C9.80468 1.49438 9.80443 1.53741 9.80447 1.58043C9.8046 1.76468 9.80784 1.76453 9.90969 1.75998C9.92869 1.75914 9.95111 1.75814 9.97758 1.75815C11.2472 1.75888 12.5168 1.75882 13.7863 1.75875H13.7869L14.8582 1.75872C14.996 1.75876 14.9962 1.75884 14.9962 1.89576V13.145C14.9962 13.2783 14.9959 13.2786 14.8628 13.2785L12.8433 13.2778C11.3261 13.2772 9.80891 13.2766 8.29167 13.2766C7.33773 13.2765 6.38378 13.2771 5.42983 13.2776L5.4187 13.2776C4.81088 13.2779 4.20306 13.2783 3.59524 13.2785L2.68155 13.2784C1.83827 13.2783 0.994987 13.2781 0.151722 13.2811C0.0448474 13.2815 0.0233257 13.2488 0.023407 13.1483C0.0263055 10.4017 0.0265293 7.65503 0.0267531 4.90836L0.0267904 4.45688C0.0268447 3.89083 0.0264643 3.32477 0.0260838 2.75871L0.0255675 1.90962V1.75872ZM4.61881 6.28116V6.28117C4.61833 6.46279 4.61786 6.64442 4.62063 6.82599C4.62173 6.89854 4.60547 6.92813 4.52587 6.92712C4.21062 6.92304 3.89525 6.92369 3.57993 6.92675C3.50807 6.92748 3.48736 6.90229 3.48769 6.83263C3.48993 6.33082 3.49001 5.82902 3.48756 5.32721C3.4872 5.25515 3.50432 5.22347 3.58319 5.22433C3.89851 5.22771 4.21392 5.22727 4.52921 5.22458C4.60156 5.22396 4.62145 5.25119 4.62051 5.32061C4.61803 5.50267 4.61844 5.68478 4.61885 5.8669V5.86691C4.61901 5.9357 4.61917 6.0045 4.61917 6.0733C4.61917 6.14258 4.61899 6.21187 4.61881 6.28116ZM11.537 5.62193C11.537 5.4947 11.537 5.36694 11.537 5.23848C11.5292 5.23671 11.5223 5.23475 11.5158 5.23294C11.5034 5.22946 11.4929 5.22654 11.4825 5.22654C11.3574 5.22628 11.2323 5.22629 11.1073 5.2263C10.8998 5.22631 10.6922 5.22633 10.4847 5.22511C10.4122 5.22466 10.4027 5.2631 10.4029 5.32212C10.404 5.82768 10.4044 6.33323 10.4025 6.83879C10.4022 6.90539 10.4251 6.92712 10.4912 6.92659C10.8101 6.92406 11.1291 6.92406 11.4481 6.92647C11.5141 6.927 11.5381 6.90438 11.5379 6.83855C11.5367 6.43483 11.5368 6.03114 11.537 5.62193Z" fill="#0F6E94"/>
</svg>
