<svg width="13" height="15" viewBox="0 0 13 15" fill="none" xmlns="http://www.w3.org/2000/svg">
<path fill-rule="evenodd" clip-rule="evenodd" d="M1.46916 8.62153C1.12802 7.87673 0.91429 7.10053 0.92949 6.2718C0.958624 4.82347 1.48229 3.57493 2.49102 2.5428C3.33856 1.6756 4.37002 1.12947 5.57936 0.9722C7.56429 0.714134 9.23342 1.3504 10.5302 2.86593C11.5306 4.03493 11.9466 5.41773 11.7616 6.9538C11.6447 7.92473 11.2448 8.79607 10.7176 9.6118C10.1115 10.5497 9.38409 11.3873 8.57549 12.1526C8.0856 12.6162 7.58356 13.0669 7.08155 13.5176C6.91836 13.6641 6.75518 13.8107 6.59242 13.9576C6.39636 14.1347 6.33442 14.1373 6.14122 13.9572C5.89461 13.7273 5.64636 13.4989 5.3981 13.2706C4.74325 12.6683 4.08834 12.0659 3.46316 11.4342C2.64876 10.6111 1.95596 9.68427 1.46916 8.62153ZM11.5156 9.986C12.2103 8.8754 12.6698 7.68747 12.6798 6.35673C12.6874 5.59887 12.5568 4.86227 12.2919 4.155C11.2107 1.26907 8.27629 -0.429066 5.24889 0.1438C2.79369 0.608334 1.15382 2.08047 0.351157 4.4442C-0.0873764 5.7356 -0.049443 7.04253 0.407424 8.333C0.833157 9.5352 1.54216 10.5645 2.35829 11.5269C3.24385 12.5711 4.26739 13.4737 5.29036 14.3757C5.39622 14.469 5.50207 14.5624 5.60776 14.6559C6.10042 15.0917 6.65356 15.0742 7.15449 14.6333C7.59629 14.2443 8.03429 13.851 8.47042 13.4557C9.61796 12.4156 10.689 11.3073 11.5156 9.986ZM8.26986 6.16547C8.2496 7.1986 7.38153 8.0318 6.3444 8.01353C5.26526 7.99453 4.442 7.137 4.4634 6.05427C4.48386 5.0184 5.3572 4.1852 6.4056 4.20127C7.45886 4.2174 8.29086 5.09407 8.26986 6.16547ZM6.37973 8.8942C7.91026 8.88587 9.15246 7.63447 9.14786 6.10567C9.14313 4.5726 7.90173 3.33147 6.3702 3.32853C4.83546 3.32567 3.57453 4.58733 3.5852 6.11513C3.596 7.65987 4.8456 8.90253 6.37973 8.8942Z" fill="#999999"/>
</svg>
