<svg width="17" height="17" viewBox="0 0 17 17" fill="none" xmlns="http://www.w3.org/2000/svg">
<path fill-rule="evenodd" clip-rule="evenodd" d="M15.8092 15.9784H1.31166C1.14594 15.9784 1.01166 15.8441 1.01166 15.6784V1.37715C1.01166 1.21143 1.14594 1.07715 1.31166 1.07715H9.97494C10.1407 1.07715 10.2749 1.21143 10.2749 1.37715V7.19991H15.8091C15.9748 7.19991 16.1091 7.33419 16.1091 7.49991V15.6783C16.1092 15.844 15.9749 15.9784 15.8092 15.9784ZM4.51506 15.3784H15.5151V7.78278H10.2876V11.3598H4.51506V15.3784ZM3.91494 15.3784H1.61166V11.3598H3.91494V15.3784ZM4.21506 10.7598H9.66222V8.74753C9.66222 8.72879 9.66678 8.71072 9.67506 8.69361V6.75983H1.61166V10.7598H4.21506ZM9.66659 6.17715H1.61166V1.67715H9.66659V6.17715Z" fill="#0F6E94"/>
<path d="M10.2749 7.19991H9.97494V7.49991H10.2749V7.19991ZM16.1091 15.6783H15.8091V15.6785L16.1091 15.6783ZM15.5151 15.3784V15.6784H15.8151V15.3784H15.5151ZM4.51506 15.3784H4.21506V15.6784H4.51506V15.3784ZM15.5151 7.78278H15.8151V7.48278H15.5151V7.78278ZM10.2876 7.78278V7.48278H9.98761V7.78278H10.2876ZM10.2876 11.3598V11.6598H10.5876V11.3598H10.2876ZM4.51506 11.3598V11.0598H4.21506V11.3598H4.51506ZM1.61166 15.3784H1.31166V15.6784H1.61166V15.3784ZM3.91494 15.3784V15.6784H4.21494V15.3784H3.91494ZM1.61166 11.3598V11.0598H1.31166V11.3598H1.61166ZM3.91494 11.3598H4.21494V11.0598H3.91494V11.3598ZM9.66222 10.7598V11.0598H9.96222V10.7598H9.66222ZM9.67506 8.69361L9.9451 8.82429L9.97506 8.76238V8.69361H9.67506ZM9.67506 6.75983H9.97506V6.45983H9.67506V6.75983ZM1.61166 6.75983V6.45983H1.31166V6.75983H1.61166ZM1.61166 10.7598H1.31166V11.0598H1.61166V10.7598ZM1.61166 6.17715H1.31166V6.47715H1.61166V6.17715ZM9.66659 6.17715V6.47715H9.96659V6.17715H9.66659ZM1.61166 1.67715V1.37715H1.31166V1.67715H1.61166ZM9.66659 1.67715H9.96659V1.37715H9.66659V1.67715ZM1.31166 16.2784H15.8092V15.6784H1.31166V16.2784ZM0.711658 15.6784C0.711658 16.0098 0.980252 16.2784 1.31166 16.2784V15.6784H0.711658ZM0.711658 1.37715V15.6784H1.31166V1.37715H0.711658ZM1.31166 0.777148C0.980252 0.777148 0.711658 1.04574 0.711658 1.37715H1.31166V0.777148ZM9.97494 0.777148H1.31166V1.37715H9.97494V0.777148ZM10.5749 1.37715C10.5749 1.04574 10.3063 0.777148 9.97494 0.777148V1.37715H10.5749ZM10.5749 7.19991V1.37715H9.97494V7.19991H10.5749ZM15.8091 6.89991H10.2749V7.49991H15.8091V6.89991ZM16.4091 7.49991C16.4091 7.1685 16.1405 6.89991 15.8091 6.89991V7.49991H16.4091ZM16.4091 15.6783V7.49991H15.8091V15.6783H16.4091ZM15.8092 16.2784C16.1407 16.2784 16.4093 16.0095 16.4091 15.6781L15.8091 15.6785L15.8092 15.6784V16.2784ZM15.5151 15.0784H4.51506V15.6784H15.5151V15.0784ZM15.2151 7.78278V15.3784H15.8151V7.78278H15.2151ZM10.2876 8.08278H15.5151V7.48278H10.2876V8.08278ZM10.5876 11.3598V7.78278H9.98761V11.3598H10.5876ZM4.51506 11.6598H10.2876V11.0598H4.51506V11.6598ZM4.81506 15.3784V11.3598H4.21506V15.3784H4.81506ZM1.61166 15.6784H3.91494V15.0784H1.61166V15.6784ZM1.31166 11.3598V15.3784H1.91166V11.3598H1.31166ZM3.91494 11.0598H1.61166V11.6598H3.91494V11.0598ZM4.21494 15.3784V11.3598H3.61494V15.3784H4.21494ZM9.66222 10.4598H4.21506V11.0598H9.66222V10.4598ZM9.36222 8.74753V10.7598H9.96222V8.74753H9.36222ZM9.40502 8.56292C9.37918 8.61632 9.36222 8.67883 9.36222 8.74753H9.96222C9.96222 8.77876 9.95438 8.80511 9.9451 8.82429L9.40502 8.56292ZM9.37506 6.75983V8.69361H9.97506V6.75983H9.37506ZM1.61166 7.05983H9.67506V6.45983H1.61166V7.05983ZM1.91166 10.7598V6.75983H1.31166V10.7598H1.91166ZM4.21506 10.4598H1.61166V11.0598H4.21506V10.4598ZM1.61166 6.47715H9.66659V5.87715H1.61166V6.47715ZM1.31166 1.67715V6.17715H1.91166V1.67715H1.31166ZM9.66659 1.37715H1.61166V1.97715H9.66659V1.37715ZM9.96659 6.17715V1.67715H9.36659V6.17715H9.96659Z" fill="#0F6E94"/>
</svg>
