<svg width="15" height="15" viewBox="0 0 15 15" fill="none" xmlns="http://www.w3.org/2000/svg">
<path fill-rule="evenodd" clip-rule="evenodd" d="M6.85574 13.7491V9.38934H5.61726V8.14711H9.34655V9.38395H8.11265V13.7485H13.7241V9.38889H12.492V8.14228H13.7245V1.27325H10.6163V0.0282499H14.9701V14.9942H0.00524902V0.0227003H0.114914C1.98143 0.0227003 3.84794 0.0222982 5.71446 0.0246708C5.77068 0.0247513 5.83558 0.0408371 5.88187 0.0714805C6.97261 0.793934 8.06133 1.51936 9.15042 2.24439C9.33348 2.36624 9.51621 2.48865 9.70607 2.61541C9.47105 2.96793 9.24151 3.31216 9.00557 3.66605C8.84053 3.55619 8.68003 3.44982 8.52002 3.34277C7.50971 2.66716 6.49981 1.99092 5.48817 1.31737C5.44434 1.28817 5.38426 1.26951 5.3317 1.26939C4.0047 1.26682 2.67774 1.26734 1.35079 1.26754C1.31817 1.26754 1.28552 1.27035 1.24727 1.27212V8.13392H2.48467V9.38186H1.24844V13.7491H6.85574Z" fill="black"/>
</svg>
