<svg width="17" height="17" viewBox="0 0 17 17" fill="none" xmlns="http://www.w3.org/2000/svg">
<path fill-rule="evenodd" clip-rule="evenodd" d="M15.8092 1.02161H1.31163C1.14591 1.02161 1.01163 1.15589 1.01163 1.32161V15.6229C1.01163 15.7886 1.14591 15.9229 1.31163 15.9229H9.97491C10.1406 15.9229 10.2749 15.7886 10.2749 15.6229V9.80009H15.8091C15.9748 9.80009 16.1091 9.66581 16.1091 9.50009V1.32173C16.1092 1.15601 15.9749 1.02161 15.8092 1.02161ZM1.50919 1.62161H15.5092V9.20009H1.50919V1.62161ZM9.66656 9.82285H1.61163V15.3229H9.66656V9.82285Z" fill="#0F6E94"/>
<path d="M10.2749 9.80009H9.97491V9.50009H10.2749V9.80009ZM16.1091 1.32173H15.8091V1.32151L16.1091 1.32173ZM15.5092 1.62161V1.32161H15.8092V1.62161H15.5092ZM1.50919 1.62161H1.20919V1.32161H1.50919V1.62161ZM15.5092 9.20009H15.8092V9.50009H15.5092V9.20009ZM1.50919 9.20009V9.50009H1.20919V9.20009H1.50919ZM1.61163 9.82285H1.31163V9.52285H1.61163V9.82285ZM9.66656 9.82285V9.52285H9.96656V9.82285H9.66656ZM1.61163 15.3229V15.6229H1.31163V15.3229H1.61163ZM9.66656 15.3229H9.96656V15.6229H9.66656V15.3229ZM1.31163 0.721611H15.8092V1.32161H1.31163V0.721611ZM0.711627 1.32161C0.711627 0.990206 0.980222 0.721611 1.31163 0.721611V1.32161H0.711627ZM0.711627 15.6229V1.32161H1.31163V15.6229H0.711627ZM1.31163 16.2229C0.980222 16.2229 0.711627 15.9543 0.711627 15.6229H1.31163V16.2229ZM9.97491 16.2229H1.31163V15.6229H9.97491V16.2229ZM10.5749 15.6229C10.5749 15.9543 10.3063 16.2229 9.97491 16.2229V15.6229H10.5749ZM10.5749 9.80009V15.6229H9.97491V9.80009H10.5749ZM15.8091 10.1001H10.2749V9.50009H15.8091V10.1001ZM16.4091 9.50009C16.4091 9.8315 16.1405 10.1001 15.8091 10.1001V9.50009H16.4091ZM16.4091 1.32173V9.50009H15.8091V1.32173H16.4091ZM15.8092 0.721611C16.1407 0.721611 16.4093 0.990488 16.4091 1.32195L15.8091 1.32151L15.8092 1.32161V0.721611ZM15.5092 1.92161H1.50919V1.32161H15.5092V1.92161ZM15.2092 9.20009V1.62161H15.8092V9.20009H15.2092ZM1.50919 8.90009H15.5092V9.50009H1.50919V8.90009ZM1.80919 1.62161V9.20009H1.20919V1.62161H1.80919ZM1.61163 9.52285H9.66656V10.1229H1.61163V9.52285ZM1.31163 15.3229V9.82285H1.91163V15.3229H1.31163ZM9.66656 15.6229H1.61163V15.0229H9.66656V15.6229ZM9.96656 9.82285V15.3229H9.36656V9.82285H9.96656Z" fill="#0F6E94"/>
</svg>
