<svg width="16" height="17" viewBox="0 0 16 17" fill="none" xmlns="http://www.w3.org/2000/svg">
<path fill-rule="evenodd" clip-rule="evenodd" d="M15.1884 15.9784H0.690798C0.525078 15.9784 0.390798 15.844 0.390918 15.6783V7.49991C0.390918 7.33419 0.525198 7.19991 0.690918 7.19991H6.22508V1.37715C6.22508 1.21143 6.35936 1.07715 6.52508 1.07715H15.1884C15.3541 1.07715 15.4884 1.21143 15.4884 1.37715V15.6784C15.4884 15.8441 15.3541 15.9784 15.1884 15.9784ZM0.990798 15.3784H6.23792V7.79991H0.990798V15.3784ZM14.8884 15.3784H6.88836V11.3598H14.8884V15.3784ZM6.83342 10.6771H14.8884V1.67715H6.83342V10.6771Z" fill="#0F6E94"/>
<path d="M0.390918 15.6783H0.690918V15.6785L0.390918 15.6783ZM6.22508 7.19991H6.52508V7.49991H6.22508V7.19991ZM6.23792 15.3784H6.53792V15.6784H6.23792V15.3784ZM0.990798 15.3784V15.6784H0.690798V15.3784H0.990798ZM6.23792 7.79991V7.49991H6.53792V7.79991H6.23792ZM0.990798 7.79991H0.690798V7.49991H0.990798V7.79991ZM6.88836 15.3784V15.6784H6.58836V15.3784H6.88836ZM14.8884 15.3784H15.1884V15.6784H14.8884V15.3784ZM6.88836 11.3598H6.58836V11.0598H6.88836V11.3598ZM14.8884 11.3598V11.0598H15.1884V11.3598H14.8884ZM14.8884 10.6771H15.1884V10.9771H14.8884V10.6771ZM6.83342 10.6771V10.9771H6.53342V10.6771H6.83342ZM14.8884 1.67715V1.37715H15.1884V1.67715H14.8884ZM6.83342 1.67715H6.53342V1.37715H6.83342V1.67715ZM0.690798 15.6784H15.1884V16.2784H0.690798V15.6784ZM0.690918 15.6785L0.690798 15.6784V16.2784C0.359278 16.2784 0.0906773 16.0095 0.0909176 15.6781L0.690918 15.6785ZM0.690918 7.49991V15.6783H0.0909176V7.49991H0.690918ZM0.690918 7.49991H0.0909176C0.0909176 7.1685 0.359512 6.89991 0.690918 6.89991V7.49991ZM6.22508 7.49991H0.690918V6.89991H6.22508V7.49991ZM6.52508 1.37715V7.19991H5.92508V1.37715H6.52508ZM6.52508 1.37715H5.92508C5.92508 1.04574 6.19367 0.777148 6.52508 0.777148V1.37715ZM15.1884 1.37715H6.52508V0.777148H15.1884V1.37715ZM15.1884 1.37715V0.777148C15.5198 0.777148 15.7884 1.04574 15.7884 1.37715H15.1884ZM15.1884 15.6784V1.37715H15.7884V15.6784H15.1884ZM15.1884 15.6784H15.7884C15.7884 16.0098 15.5198 16.2784 15.1884 16.2784V15.6784ZM6.23792 15.6784H0.990798V15.0784H6.23792V15.6784ZM6.53792 7.79991V15.3784H5.93792V7.79991H6.53792ZM0.990798 7.49991H6.23792V8.09991H0.990798V7.49991ZM0.690798 15.3784V7.79991H1.2908V15.3784H0.690798ZM6.88836 15.0784H14.8884V15.6784H6.88836V15.0784ZM7.18836 11.3598V15.3784H6.58836V11.3598H7.18836ZM14.8884 11.6598H6.88836V11.0598H14.8884V11.6598ZM14.5884 15.3784V11.3598H15.1884V15.3784H14.5884ZM14.8884 10.9771H6.83342V10.3771H14.8884V10.9771ZM15.1884 1.67715V10.6771H14.5884V1.67715H15.1884ZM6.83342 1.37715H14.8884V1.97715H6.83342V1.37715ZM6.53342 10.6771V1.67715H7.13342V10.6771H6.53342Z" fill="#0F6E94"/>
</svg>
