<svg width="20" height="15" viewBox="0 0 20 15" fill="none" xmlns="http://www.w3.org/2000/svg">
<path fill-rule="evenodd" clip-rule="evenodd" d="M5.01774 6.42298H9.27807C9.27807 6.17538 9.28321 5.93791 9.27694 5.70071C9.26654 5.30578 8.97334 5.00645 8.57454 5.00365C7.61974 4.99678 6.66487 4.99758 5.71001 5.00325C5.35974 5.00531 5.06567 5.24445 5.02434 5.58778C4.99161 5.85931 5.01774 6.13791 5.01774 6.42298ZM10.7025 6.42298H14.9758C14.9758 6.16958 14.9844 5.92618 14.9738 5.68365C14.9569 5.29491 14.6638 5.00605 14.2713 5.00345C13.3161 4.99705 12.3607 4.99651 11.4055 5.00365C11.0251 5.00651 10.7241 5.29898 10.7049 5.67185C10.6924 5.91525 10.7025 6.15978 10.7025 6.42298ZM17.8297 6.42505C17.8297 6.35251 17.8298 6.29258 17.8297 6.23271C17.8296 4.89958 17.8297 3.56645 17.8292 2.23331C17.829 1.73265 17.5446 1.44418 17.0481 1.44411C12.3432 1.44371 7.63841 1.44371 2.93361 1.44411C2.44361 1.44418 2.16007 1.72925 2.15961 2.21931C2.15861 3.23018 2.15827 4.24111 2.15781 5.25205C2.15761 5.63931 2.15781 6.02651 2.15781 6.42338H3.58461C3.58461 6.35391 3.58294 6.29418 3.58487 6.23465C3.59441 5.94085 3.56874 5.64038 3.62147 5.35451C3.81881 4.28438 4.68121 3.58478 5.78034 3.57938C6.59127 3.57531 7.40247 3.59151 8.21301 3.57451C8.87301 3.56065 9.48227 3.67398 9.99254 4.14005C10.4952 3.67918 11.0933 3.56171 11.7434 3.57471C12.5485 3.59078 13.3541 3.57658 14.1595 3.58018C14.3199 3.58091 14.4833 3.58711 14.64 3.61805C15.6917 3.82518 16.3932 4.68098 16.4007 5.75638C16.4023 5.97665 16.401 6.19685 16.401 6.42505H17.8297ZM17.8305 12.1377V13.5472H18.5403V13.3557C18.5403 11.7836 18.5405 10.2116 18.5403 8.63958C18.5402 8.14025 18.2579 7.85585 17.7566 7.85505C16.7735 7.85358 15.7903 7.85445 14.8071 7.85445C10.6079 7.85451 6.40874 7.85425 2.20947 7.85511C1.73161 7.85525 1.44447 8.14491 1.44414 8.62491C1.44301 10.208 1.44361 11.7912 1.44414 13.3743C1.44414 13.4327 1.45034 13.4911 1.45341 13.5453H2.16874V12.1377H17.8305ZM19.9563 14.9632H16.4085V13.567H3.58754V14.957H0.0252731V14.7812C0.0252731 12.726 0.0276731 10.6706 0.0238731 8.61538C0.0227398 8.01171 0.233873 7.50225 0.64634 7.06625C0.698873 7.01071 0.730673 6.91245 0.73094 6.83385C0.735806 5.28965 0.734273 3.74545 0.734606 2.20131C0.73494 0.968246 1.67381 0.0255124 2.90374 0.025379C7.63094 0.024779 12.3581 0.024779 17.0853 0.025379C18.3066 0.0255124 19.2465 0.966379 19.2473 2.18911C19.2483 3.72771 19.2488 5.26631 19.2451 6.80491C19.2447 6.93145 19.2829 7.02018 19.3706 7.11131C19.748 7.50311 19.9582 7.97598 19.9599 8.52005C19.9667 10.6308 19.9627 12.7415 19.9624 14.8522C19.9624 14.8847 19.9589 14.9171 19.9563 14.9632Z" fill="black"/>
</svg>
