<svg width="17" height="15" viewBox="0 0 17 15" fill="none" xmlns="http://www.w3.org/2000/svg">
<path fill-rule="evenodd" clip-rule="evenodd" d="M4.08044 12.9173C4.08058 13.29 4.38312 13.5951 4.7574 13.6C5.14305 13.605 5.44972 13.303 5.45 12.9179C5.45029 12.5337 5.14203 12.2287 4.75798 12.2333C4.38573 12.2377 4.08029 12.546 4.08044 12.9173ZM12.8977 12.9179C12.8978 12.5383 12.604 12.2391 12.2259 12.2337C11.8425 12.2284 11.5294 12.5353 11.5291 12.9168C11.5289 13.2961 11.8427 13.6042 12.2246 13.5995C12.6025 13.5949 12.8976 13.2961 12.8977 12.9179ZM3.45073 8.82128C6.88566 8.61845 10.3009 8.41678 13.7225 8.21468C14.0636 6.84367 14.4028 5.48026 14.7435 4.11128H3.02667C3.16776 5.67845 3.30769 7.23309 3.45073 8.82128ZM3.16522 11.6721C2.76254 11.3281 2.44783 10.9262 2.32356 10.4213C2.22631 10.026 2.18356 9.61454 2.14522 9.20758C2.00624 7.72961 1.87964 6.25055 1.74761 4.77193C1.64993 3.67809 1.55116 2.58432 1.45261 1.49055C1.45051 1.46722 1.44566 1.44417 1.43819 1.39533C1.21029 1.39533 0.982976 1.40106 0.756164 1.3941C0.321237 1.3807 0.0255846 1.09222 0.0370339 0.70113C0.0465266 0.376565 0.319643 0.0796808 0.644643 0.0721446C1.13341 0.0608403 1.62269 0.0610577 2.11153 0.0719272C2.43943 0.0792461 2.68776 0.342072 2.71819 0.679463C2.7774 1.33461 2.83725 1.98968 2.89725 2.64475C2.90044 2.67983 2.90761 2.71446 2.91631 2.77091H3.16935C7.25073 2.77091 11.3321 2.7707 15.4134 2.77222C15.5394 2.77229 15.6707 2.77171 15.7901 2.80512C16.1394 2.90265 16.3323 3.24649 16.2409 3.61801C15.947 4.81236 15.6452 6.00475 15.3467 7.19794C15.2046 7.76562 15.0633 8.33345 14.9209 8.90098C14.8087 9.34838 14.6046 9.50403 14.1423 9.53041C12.3645 9.63156 10.5871 9.73888 8.8095 9.84294C7.26682 9.93323 5.72399 10.0223 4.18131 10.1123C4.00877 10.1224 3.83645 10.1356 3.63732 10.1491C3.83182 10.5487 4.11856 10.7889 4.53174 10.8656C4.66718 10.8908 4.80769 10.8979 4.94587 10.8979C7.34885 10.8998 9.75174 10.898 12.1546 10.9C13.0746 10.9008 13.8059 11.4011 14.1162 12.2319C14.4387 13.0954 14.1112 14.0781 13.3262 14.6026C12.5664 15.1103 11.5281 15.0351 10.8643 14.4127C10.2661 13.8519 10.0707 13.1671 10.2728 12.3708C10.2815 12.3363 10.2878 12.3012 10.2994 12.2471H6.68145C6.87051 12.897 6.80406 13.5128 6.42037 14.076C6.18957 14.4148 5.87348 14.6526 5.49305 14.801C4.71776 15.1035 3.78972 14.8829 3.25943 14.2643C2.74573 13.665 2.46645 12.673 3.16522 11.6721Z" fill="black"/>
</svg>
