<svg width="18" height="15" viewBox="0 0 18 15" fill="none" xmlns="http://www.w3.org/2000/svg">
<path fill-rule="evenodd" clip-rule="evenodd" d="M6.20586 12.3447C6.15465 12.3043 6.10548 12.2609 6.05187 12.2239C5.03187 11.5203 3.9035 11.1524 2.66329 11.1316C2.12755 11.1224 1.90788 10.9016 1.90779 10.373C1.9077 7.69612 1.90779 5.01911 1.90779 2.34218V2.0452C1.73897 2.19156 1.61808 2.31023 1.48308 2.40991C1.33308 2.52059 1.28223 2.65079 1.28267 2.84109C1.29004 5.65115 1.28835 8.46121 1.28879 11.2713V11.5343C2.98513 11.5847 4.6116 11.8518 6.20586 12.3447ZM16.1848 11.5357C16.1909 11.4821 16.1968 11.4536 16.1968 11.4252C16.1974 8.52662 16.1977 5.62816 16.1962 2.7297C16.1962 2.6736 16.1943 2.59763 16.1604 2.56479C15.9837 2.39393 15.7965 2.23408 15.5774 2.03881V2.36473C15.5774 5.01183 15.5774 7.65893 15.5773 10.3059C15.5773 10.9198 15.383 11.123 14.7772 11.1317C14.0668 11.1419 13.3829 11.2853 12.7218 11.5384C12.2037 11.7366 11.7179 11.9949 11.2887 12.3593C12.878 11.8556 14.503 11.5803 16.1848 11.5357ZM14.317 9.90467V1.28544C12.2676 1.49615 10.6333 2.40014 9.42465 4.05343C9.37823 4.11707 9.36696 4.21843 9.36687 4.3023C9.36394 6.91967 9.3643 9.53712 9.36501 12.1545C9.36501 12.2152 9.37441 12.2759 9.38214 12.3681C10.736 10.9094 12.3765 10.1017 14.317 9.90467ZM8.10953 12.3737C8.1153 12.2869 8.12036 12.245 8.12045 12.2032C8.12072 9.54973 8.12169 6.89624 8.11628 4.24275C8.11601 4.14911 8.07172 4.04109 8.01501 3.96423C7.17794 2.8292 6.08631 2.04192 4.74776 1.59884C4.23607 1.4294 3.71063 1.3307 3.16122 1.29272V9.9044C5.10678 10.1001 6.74657 10.908 8.10953 12.3737ZM8.75018 2.87766C9.27607 2.26212 9.8569 1.74014 10.5208 1.31331C11.8167 0.480142 13.2361 0.0615625 14.7758 0.0423909C15.0563 0.0388406 15.2897 0.120231 15.4989 0.315142C16.0344 0.814137 16.5791 1.30346 17.1247 1.79136C17.3027 1.95041 17.3881 2.13911 17.388 2.37618C17.386 5.64467 17.387 8.91325 17.3837 12.1817C17.3833 12.6344 17.1356 12.8671 16.6716 12.8696C14.9969 12.8785 13.3552 13.1025 11.7604 13.6255C10.9078 13.9051 10.0891 14.2605 9.33021 14.7451C8.87586 15.0351 8.65672 15.023 8.21551 14.7286C7.05563 13.9547 5.76652 13.4919 4.41811 13.1793C3.23933 12.906 2.04297 12.7821 0.833557 12.774C0.257522 12.7702 0.0440601 12.5535 0.0439713 11.9809C0.0434387 8.78633 0.0452139 5.59177 0.0389121 2.39712C0.0383796 2.10644 0.13406 1.89103 0.353823 1.70286C0.909977 1.22695 1.45708 0.740468 2.00249 0.252302C2.17104 0.101503 2.34829 0.0349353 2.58155 0.0374205C5.01829 0.0632489 7.04959 0.972657 8.66649 2.79999C8.68539 2.82138 8.70847 2.83923 8.75018 2.87766Z" fill="black"/>
</svg>
