<svg width="21" height="20" viewBox="0 0 21 20" fill="none" xmlns="http://www.w3.org/2000/svg">
<path fill-rule="evenodd" clip-rule="evenodd" d="M5.22547 14.7464H0.929558V13.0419H5.22547V14.7464ZM5.22031 6.9579H0.926624V5.25346H5.22031V6.9579ZM5.22511 12.1579H0.926624V7.84217H5.22511V12.1579ZM14.0606 16.4885C13.57 16.4885 13.0795 16.4885 12.5889 16.4885C12.1002 16.4885 11.6115 16.4885 11.1228 16.4885C9.65667 16.4885 8.19054 16.4885 6.7244 16.4884C6.23311 16.4884 6.09711 16.3558 6.09702 15.8741C6.09676 11.957 6.09676 8.03994 6.09711 4.12288C6.09711 3.65079 6.23587 3.51168 6.70511 3.51168C10.6296 3.5115 14.554 3.5115 18.4785 3.51168C18.9573 3.51168 19.0875 3.63906 19.0876 4.11479C19.0881 8.03923 19.0882 11.9638 19.0875 15.8881C19.0875 16.3617 18.9566 16.4883 18.4757 16.4884C17.004 16.4885 15.5323 16.4885 14.0606 16.4885ZM0.912136 15.636H5.23649C5.23649 15.6672 5.23692 15.6962 5.23733 15.7236C5.23813 15.7779 5.23885 15.8262 5.23596 15.8743C5.18316 16.7482 5.78627 17.3675 6.71525 17.3636C9.36688 17.3524 12.0186 17.3534 14.6703 17.3544C15.9435 17.3549 17.2167 17.3554 18.4899 17.3545C18.6586 17.3543 18.8336 17.3478 18.9951 17.3046C19.6088 17.14 19.9555 16.6455 19.9557 15.9543C19.9563 13.4318 19.9562 10.9094 19.9561 8.38703C19.9561 7.4881 19.956 6.58918 19.956 5.69026C19.956 5.5181 19.9559 5.34595 19.9558 5.1738C19.9555 4.77573 19.9552 4.37766 19.9565 3.97959C19.9575 3.67301 19.8744 3.39648 19.6843 3.1531C19.3857 2.77052 18.9833 2.64119 18.5126 2.64163C15.4676 2.64424 12.4227 2.64399 9.37782 2.64374C8.47563 2.64366 7.57344 2.64359 6.67125 2.64359C6.66802 2.64359 6.6648 2.64359 6.66157 2.64359C6.62773 2.64357 6.5939 2.64356 6.56014 2.6451C5.75462 2.68332 5.24982 3.20554 5.23694 4.01443C5.23566 4.0932 5.23601 4.17202 5.23635 4.24992C5.23651 4.2856 5.23667 4.32109 5.23667 4.3563H0.912136V4.0715C0.912136 3.8449 0.912153 3.6183 0.912171 3.39169C0.912242 2.48529 0.912313 1.57884 0.911247 0.672388C0.911158 0.576655 0.910536 0.478166 0.889469 0.385633C0.843336 0.182344 0.706002 0.0621662 0.49978 0.0516774C0.295336 0.0412774 0.138447 0.135588 0.0772911 0.340033C0.0503578 0.430166 0.0452911 0.529455 0.0452911 0.624566C0.0439578 6.87479 0.0438689 13.125 0.0452911 19.3752C0.0453062 19.3914 0.0449455 19.4082 0.0445779 19.4253C0.042778 19.5093 0.0408138 19.601 0.0820022 19.6553C0.16858 19.7696 0.288402 19.9047 0.414536 19.9299C0.530536 19.9531 0.716491 19.8776 0.792669 19.7825C0.878536 19.6753 0.90618 19.4976 0.907336 19.3501C0.913932 18.472 0.913245 17.5939 0.912558 16.7157C0.912347 16.446 0.912136 16.1763 0.912136 15.9066V15.636ZM11.2969 6.3622V6.1078H13.9031V7.57794C13.9031 7.63912 13.9029 7.7003 13.9027 7.76147C13.9022 7.90025 13.9017 8.03901 13.9038 8.17776C13.9095 8.55367 14.0545 8.70087 14.4333 8.70327C14.8595 8.70589 15.2857 8.70531 15.7119 8.70474C15.8929 8.70449 16.0739 8.70425 16.2549 8.70425H16.4713V11.2958H14.8503C14.8043 11.2958 14.7583 11.2954 14.7124 11.295C14.6102 11.2942 14.5081 11.2933 14.4061 11.2967C14.0556 11.3085 13.9071 11.4552 13.9046 11.8049C13.9014 12.2314 13.902 12.658 13.9027 13.0845C13.9029 13.2652 13.9032 13.4458 13.9031 13.6265V13.886H11.2969V13.6553C11.2969 13.4789 11.297 13.3025 11.2971 13.1261C11.2974 12.7027 11.2977 12.2793 11.2964 11.856C11.2952 11.4506 11.1398 11.2975 10.7285 11.2962C10.319 11.295 9.90955 11.2953 9.5001 11.2956C9.32461 11.2957 9.14913 11.2958 8.97363 11.2958H8.71905V8.70425H8.95585C9.13356 8.70425 9.31126 8.70437 9.48897 8.70449C9.90362 8.70477 10.3183 8.70505 10.7329 8.7038C11.1412 8.70256 11.2952 8.54816 11.2965 8.13936C11.2977 7.72346 11.2974 7.30756 11.2971 6.89162C11.297 6.71516 11.2969 6.53868 11.2969 6.3622ZM15.3879 7.82907C15.1825 7.8291 14.9747 7.82914 14.7636 7.82914V7.55891C14.7636 7.38392 14.7638 7.20894 14.764 7.03397C14.7645 6.60899 14.765 6.18404 14.7625 5.75909C14.7605 5.40967 14.5916 5.23865 14.2426 5.23767C13.1465 5.23465 12.0503 5.23447 10.9542 5.23785C10.599 5.23891 10.4391 5.40229 10.4373 5.75571C10.4353 6.18393 10.4357 6.6122 10.4361 7.04045C10.4363 7.21952 10.4365 7.3986 10.4365 7.57767V7.82914C10.2272 7.82914 10.0206 7.82894 9.81605 7.82875C9.33165 7.82829 8.85826 7.82784 8.38492 7.83002C8.00065 7.8318 7.83061 8.00309 7.8299 8.38869C7.82776 9.46265 7.82758 10.5366 7.82998 11.6106C7.83087 12.0049 8.0027 12.1694 8.40625 12.1706C8.73946 12.1715 9.07268 12.1713 9.40589 12.1712C9.66521 12.1711 9.92453 12.1711 10.1839 12.1714C10.237 12.1715 10.2901 12.1746 10.3486 12.178C10.3765 12.1796 10.4056 12.1813 10.4365 12.1827C10.4365 12.3862 10.4364 12.5879 10.4363 12.7884C10.436 13.2709 10.4358 13.746 10.437 14.2213C10.4382 14.605 10.5926 14.762 10.9757 14.7628C12.057 14.765 13.1383 14.7648 14.2197 14.7629C14.5962 14.7622 14.7614 14.5963 14.7629 14.2194C14.7646 13.796 14.7643 13.3725 14.7639 12.949C14.7637 12.7725 14.7636 12.5961 14.7636 12.4196V12.1709C14.9691 12.1709 15.1716 12.1709 15.3719 12.171C15.8318 12.171 16.2804 12.1711 16.7289 12.1708C17.2198 12.1706 17.3558 12.0385 17.3562 11.5558C17.3573 10.5188 17.3572 9.48185 17.3563 8.44496C17.3559 7.96558 17.2164 7.82949 16.7296 7.82922C16.2862 7.82892 15.8427 7.82899 15.3879 7.82907Z" fill="black"/>
<path d="M0.929558 14.7464H0.679558V14.9964H0.929558V14.7464ZM5.22547 14.7464V14.9964H5.47547V14.7464H5.22547ZM0.929558 13.0419V12.7919H0.679558V13.0419H0.929558ZM5.22547 13.0419H5.47547V12.7919H5.22547V13.0419ZM0.926624 6.9579H0.676624V7.2079H0.926624V6.9579ZM5.22031 6.9579V7.2079H5.47031V6.9579H5.22031ZM0.926624 5.25346V5.00346H0.676624V5.25346H0.926624ZM5.22031 5.25346H5.47031V5.00346H5.22031V5.25346ZM0.926624 12.1579H0.676624V12.4079H0.926624V12.1579ZM5.22511 12.1579V12.4079H5.47511V12.1579H5.22511ZM0.926624 7.84217V7.59217H0.676624V7.84217H0.926624ZM5.22511 7.84217H5.47511V7.59217H5.22511V7.84217ZM14.0606 16.4885L14.0606 16.7385L14.0606 16.4885ZM11.1228 16.4885L11.1228 16.2385L11.1228 16.4885ZM6.7244 16.4884L6.72442 16.2384H6.7244V16.4884ZM6.09702 15.8741L5.84702 15.8741L5.84702 15.8741L6.09702 15.8741ZM6.09711 4.12288L6.34711 4.1229V4.12288H6.09711ZM6.70511 3.51168L6.70511 3.76168L6.70512 3.76168L6.70511 3.51168ZM18.4785 3.51168L18.4785 3.76168H18.4785V3.51168ZM19.0876 4.11479L19.3376 4.11475L19.3376 4.11474L19.0876 4.11479ZM19.0875 15.8881L18.8375 15.8881V15.8881H19.0875ZM18.4757 16.4884L18.4757 16.7384L18.4757 16.7384L18.4757 16.4884ZM5.23649 15.636H5.48649V15.386H5.23649V15.636ZM0.912136 15.636V15.386H0.662136V15.636H0.912136ZM5.23733 15.7236L5.4873 15.7199L5.4873 15.7199L5.23733 15.7236ZM5.23596 15.8743L5.4855 15.8893L5.48551 15.8893L5.23596 15.8743ZM6.71525 17.3636L6.7163 17.6136L6.71631 17.6136L6.71525 17.3636ZM14.6703 17.3544L14.6704 17.1044L14.6704 17.1044L14.6703 17.3544ZM18.4899 17.3545L18.4901 17.6045L18.4902 17.6045L18.4899 17.3545ZM18.9951 17.3046L19.0597 17.5461L19.0598 17.546L18.9951 17.3046ZM19.9557 15.9543L20.2057 15.9543L20.2057 15.9543L19.9557 15.9543ZM19.9561 8.38703L19.7061 8.38703L19.7061 8.38703L19.9561 8.38703ZM19.9558 5.1738L19.7058 5.17399L19.7058 5.17399L19.9558 5.1738ZM19.9565 3.97959L20.2065 3.98041L20.2065 3.98039L19.9565 3.97959ZM19.6843 3.1531L19.4872 3.30691L19.4873 3.30696L19.6843 3.1531ZM18.5126 2.64163L18.5128 2.89163L18.5128 2.89163L18.5126 2.64163ZM9.37782 2.64374L9.3778 2.89374L9.3778 2.89374L9.37782 2.64374ZM6.66157 2.64359L6.66168 2.39359L6.66168 2.39359L6.66157 2.64359ZM6.56014 2.6451L6.54873 2.39536L6.54829 2.39538L6.56014 2.6451ZM5.23694 4.01443L5.4869 4.0185L5.4869 4.01842L5.23694 4.01443ZM5.23635 4.24992L4.98635 4.25104L4.98635 4.25104L5.23635 4.24992ZM5.23667 4.3563V4.6063H5.48667V4.3563H5.23667ZM0.912136 4.3563H0.662136V4.6063H0.912136V4.3563ZM0.912171 3.39169L0.662171 3.39167L0.662171 3.39167L0.912171 3.39169ZM0.911247 0.672388L0.661247 0.672621L0.661247 0.672683L0.911247 0.672388ZM0.889469 0.385633L0.645668 0.44096L0.645706 0.441129L0.889469 0.385633ZM0.49978 0.0516774L0.487079 0.301355L0.487081 0.301355L0.49978 0.0516774ZM0.0772911 0.340033L-0.162223 0.268387L-0.162243 0.268456L0.0772911 0.340033ZM0.0452911 0.624566L0.295291 0.62462V0.624566H0.0452911ZM0.0452911 19.3752L-0.204709 19.3753L-0.204709 19.3755L0.0452911 19.3752ZM0.0445779 19.4253L0.294521 19.4307L0.294521 19.4307L0.0445779 19.4253ZM0.0820022 19.6553L0.281293 19.5044L0.28122 19.5043L0.0820022 19.6553ZM0.414536 19.9299L0.463563 19.6848L0.463433 19.6847L0.414536 19.9299ZM0.792669 19.7825L0.597546 19.6262L0.59754 19.6262L0.792669 19.7825ZM0.907336 19.3501L1.15733 19.352L1.15733 19.352L0.907336 19.3501ZM0.912558 16.7157L1.16256 16.7155L1.16256 16.7155L0.912558 16.7157ZM11.2969 6.1078V5.8578H11.0469V6.1078H11.2969ZM13.9031 6.1078H14.1531V5.8578H13.9031V6.1078ZM13.9027 7.76147L14.1527 7.76236L14.1527 7.76236L13.9027 7.76147ZM13.9038 8.17776L13.6538 8.18143L13.6538 8.18154L13.9038 8.17776ZM14.4333 8.70327L14.4317 8.95326L14.4317 8.95326L14.4333 8.70327ZM15.7119 8.70474L15.7123 8.95474L15.7123 8.95474L15.7119 8.70474ZM16.4713 8.70425H16.7213V8.45425H16.4713V8.70425ZM16.4713 11.2958V11.5458H16.7213V11.2958H16.4713ZM14.7124 11.295L14.7103 11.545L14.7103 11.545L14.7124 11.295ZM14.4061 11.2967L14.3978 11.0468L14.3976 11.0468L14.4061 11.2967ZM13.9046 11.8049L14.1546 11.8067L14.1546 11.8066L13.9046 11.8049ZM13.9027 13.0845L13.6527 13.0849L13.6527 13.0849L13.9027 13.0845ZM13.9031 13.6265L13.6531 13.6264V13.6265H13.9031ZM13.9031 13.886V14.136H14.1531V13.886H13.9031ZM11.2969 13.886H11.0469V14.136H11.2969V13.886ZM11.2971 13.1261L11.5471 13.1262L11.5471 13.1262L11.2971 13.1261ZM11.2964 11.856L11.0464 11.8567L11.0464 11.8568L11.2964 11.856ZM10.7285 11.2962L10.7277 11.5462L10.7277 11.5462L10.7285 11.2962ZM9.5001 11.2956L9.49993 11.0456L9.49993 11.0456L9.5001 11.2956ZM8.71905 11.2958H8.46905V11.5458H8.71905V11.2958ZM8.71905 8.70425V8.45425H8.46905V8.70425H8.71905ZM9.48897 8.70449L9.4888 8.95449L9.4888 8.95449L9.48897 8.70449ZM10.7329 8.7038L10.7337 8.9538L10.7337 8.9538L10.7329 8.7038ZM11.2965 8.13936L11.5465 8.14012L11.5465 8.14007L11.2965 8.13936ZM11.2971 6.89162L11.5471 6.89147L11.5471 6.89147L11.2971 6.89162ZM14.7636 7.82914H14.5136V8.07914H14.7636V7.82914ZM15.3879 7.82907L15.3879 7.57907L15.3879 7.57907L15.3879 7.82907ZM14.764 7.03397L15.014 7.03427L15.014 7.03427L14.764 7.03397ZM14.7625 5.75909L14.5125 5.76055L14.5125 5.76057L14.7625 5.75909ZM14.2426 5.23767L14.2433 4.98767L14.2433 4.98767L14.2426 5.23767ZM10.9542 5.23785L10.9549 5.48785L10.9549 5.48785L10.9542 5.23785ZM10.4373 5.75571L10.1873 5.75446L10.1873 5.75454L10.4373 5.75571ZM10.4361 7.04045L10.6861 7.0402L10.6861 7.0402L10.4361 7.04045ZM10.4365 7.82914V8.07914H10.6865V7.82914H10.4365ZM9.81605 7.82875L9.81581 8.07875L9.81581 8.07875L9.81605 7.82875ZM8.38492 7.83002L8.38376 7.58003L8.38376 7.58003L8.38492 7.83002ZM7.8299 8.38869L8.0799 8.38919L8.0799 8.38915L7.8299 8.38869ZM7.82998 11.6106L7.57999 11.6111L7.57999 11.6111L7.82998 11.6106ZM8.40625 12.1706L8.40553 12.4206L8.40558 12.4206L8.40625 12.1706ZM9.40589 12.1712L9.40597 12.4212L9.40598 12.4212L9.40589 12.1712ZM10.1839 12.1714L10.1835 12.4214L10.1836 12.4214L10.1839 12.1714ZM10.3486 12.178L10.3631 11.9284L10.3631 11.9284L10.3486 12.178ZM10.4365 12.1827H10.6865V11.9443L10.4483 11.933L10.4365 12.1827ZM10.4363 12.7884L10.1863 12.7883L10.1863 12.7883L10.4363 12.7884ZM10.437 14.2213L10.187 14.222L10.187 14.2221L10.437 14.2213ZM10.9757 14.7628L10.9752 15.0128L10.9752 15.0128L10.9757 14.7628ZM14.2197 14.7629L14.2201 15.0129L14.2201 15.0129L14.2197 14.7629ZM14.7629 14.2194L14.5129 14.2184L14.5129 14.2184L14.7629 14.2194ZM14.7639 12.949L14.5139 12.9492L14.5139 12.9492L14.7639 12.949ZM14.7636 12.1709V11.9209H14.5136V12.1709H14.7636ZM15.3719 12.171L15.3719 11.921L15.3719 11.921L15.3719 12.171ZM16.7289 12.1708L16.7288 11.9208L16.7288 11.9208L16.7289 12.1708ZM17.3562 11.5558L17.1062 11.5555L17.1062 11.5556L17.3562 11.5558ZM17.3563 8.44496L17.6063 8.44474L17.6063 8.44473L17.3563 8.44496ZM16.7296 7.82922L16.7295 8.07922L16.7295 8.07922L16.7296 7.82922ZM0.929558 14.9964H5.22547V14.4964H0.929558V14.9964ZM0.679558 13.0419V14.7464H1.17956V13.0419H0.679558ZM5.22547 12.7919H0.929558V13.2919H5.22547V12.7919ZM5.47547 14.7464V13.0419H4.97547V14.7464H5.47547ZM0.926624 7.2079H5.22031V6.7079H0.926624V7.2079ZM0.676624 5.25346V6.9579H1.17662V5.25346H0.676624ZM5.22031 5.00346H0.926624V5.50346H5.22031V5.00346ZM5.47031 6.9579V5.25346H4.97031V6.9579H5.47031ZM0.926624 12.4079H5.22511V11.9079H0.926624V12.4079ZM0.676624 7.84217V12.1579H1.17662V7.84217H0.676624ZM5.22511 7.59217H0.926624V8.09217H5.22511V7.59217ZM5.47511 12.1579V7.84217H4.97511V12.1579H5.47511ZM12.5889 16.7385C13.0795 16.7385 13.57 16.7385 14.0606 16.7385L14.0606 16.2385C13.57 16.2385 13.0795 16.2385 12.5889 16.2385V16.7385ZM11.1228 16.7385C11.6115 16.7385 12.1002 16.7385 12.5889 16.7385V16.2385C12.1002 16.2385 11.6115 16.2385 11.1228 16.2385L11.1228 16.7385ZM6.72438 16.7384C8.19053 16.7385 9.65667 16.7385 11.1228 16.7385L11.1228 16.2385C9.65666 16.2385 8.19054 16.2385 6.72442 16.2384L6.72438 16.7384ZM5.84702 15.8741C5.84707 16.1192 5.8767 16.3694 6.05167 16.5406C6.22486 16.71 6.47615 16.7384 6.7244 16.7384V16.2384C6.48137 16.2384 6.41901 16.2004 6.40135 16.1832C6.38548 16.1676 6.34707 16.1107 6.34702 15.874L5.84702 15.8741ZM5.84711 4.12285C5.84676 8.03994 5.84676 11.957 5.84702 15.8741L6.34702 15.8741C6.34676 11.957 6.34676 8.03995 6.34711 4.1229L5.84711 4.12285ZM6.70511 3.26168C6.46331 3.26168 6.21791 3.29312 6.04795 3.46389C5.87837 3.63427 5.84711 3.88 5.84711 4.12288H6.34711C6.34711 3.89367 6.38523 3.83379 6.40234 3.8166C6.41907 3.79979 6.47768 3.76168 6.70511 3.76168V3.26168ZM18.4785 3.26168C14.554 3.2615 10.6296 3.2615 6.7051 3.26168L6.70512 3.76168C10.6296 3.7615 14.554 3.7615 18.4785 3.76168L18.4785 3.26168ZM19.3376 4.11474C19.3376 3.87421 19.3099 3.62653 19.1383 3.457C18.9677 3.28841 18.7196 3.26168 18.4785 3.26168V3.76168C18.7162 3.76168 18.7727 3.79864 18.7869 3.81266C18.8001 3.82576 18.8376 3.87964 18.8376 4.11484L19.3376 4.11474ZM19.3375 15.8882C19.3382 11.9638 19.3381 8.03922 19.3376 4.11475L18.8376 4.11482C18.8381 8.03925 18.8382 11.9638 18.8375 15.8881L19.3375 15.8882ZM18.4757 16.7384C18.7175 16.7383 18.9658 16.7119 19.1368 16.5445C19.3096 16.3754 19.3375 16.1279 19.3375 15.8881H18.8375C18.8375 16.1219 18.8 16.1745 18.7871 16.1871C18.7724 16.2015 18.7147 16.2383 18.4756 16.2384L18.4757 16.7384ZM14.0606 16.7385C15.5323 16.7385 17.004 16.7385 18.4757 16.7384L18.4757 16.2384C17.0039 16.2385 15.5323 16.2385 14.0606 16.2385L14.0606 16.7385ZM5.23649 15.386H0.912136V15.886H5.23649V15.386ZM5.4873 15.7199C5.48689 15.6923 5.48649 15.6651 5.48649 15.636H4.98649C4.98649 15.6694 4.98695 15.7001 4.98736 15.7273L5.4873 15.7199ZM5.48551 15.8893C5.48906 15.8302 5.48808 15.7723 5.4873 15.7199L4.98736 15.7273C4.98819 15.7835 4.98864 15.8222 4.98641 15.8592L5.48551 15.8893ZM6.71419 17.1136C6.30609 17.1153 5.99129 16.981 5.78531 16.7725C5.5802 16.5648 5.46291 16.2633 5.4855 15.8893L4.98641 15.8592C4.95621 16.3591 5.11407 16.8043 5.42956 17.1238C5.74418 17.4424 6.19542 17.6158 6.7163 17.6136L6.71419 17.1136ZM14.6704 17.1044C12.0187 17.1034 9.3665 17.1024 6.71419 17.1136L6.71631 17.6136C9.36727 17.6024 12.0184 17.6034 14.6702 17.6044L14.6704 17.1044ZM18.4897 17.1045C17.2167 17.1054 15.9436 17.1049 14.6704 17.1044L14.6702 17.6044C15.9434 17.6049 17.2167 17.6054 18.4901 17.6045L18.4897 17.1045ZM18.9304 17.0631C18.8028 17.0972 18.6559 17.1043 18.4897 17.1045L18.4902 17.6045C18.6614 17.6043 18.8645 17.5983 19.0597 17.5461L18.9304 17.0631ZM19.7057 15.9542C19.7056 16.2582 19.6296 16.5016 19.5015 16.6824C19.3745 16.8615 19.1857 16.9946 18.9303 17.0631L19.0598 17.546C19.4181 17.45 19.7095 17.2535 19.9094 16.9715C20.1081 16.691 20.2056 16.3416 20.2057 15.9543L19.7057 15.9542ZM19.7061 8.38703C19.7062 10.9094 19.7063 13.4318 19.7057 15.9542L20.2057 15.9543C20.2063 13.4319 20.2062 10.9094 20.2061 8.38702L19.7061 8.38703ZM19.706 5.69026C19.706 6.58918 19.7061 7.48811 19.7061 8.38703L20.2061 8.38702C20.2061 7.48809 20.206 6.58917 20.206 5.69026H19.706ZM19.7058 5.17399C19.7059 5.34616 19.706 5.51821 19.706 5.69026H20.206C20.206 5.51799 20.2059 5.34575 20.2058 5.17361L19.7058 5.17399ZM19.7065 3.97877C19.7052 4.37743 19.7055 4.776 19.7058 5.17399L20.2058 5.17361C20.2055 4.77546 20.2052 4.37789 20.2065 3.98041L19.7065 3.97877ZM19.4873 3.30696C19.639 3.50123 19.7073 3.72163 19.7065 3.97879L20.2065 3.98039C20.2076 3.62439 20.1097 3.29172 19.8814 2.99924L19.4873 3.30696ZM18.5128 2.89163C18.933 2.89124 19.2503 3.00334 19.4872 3.30691L19.8814 2.99929C19.5212 2.53771 19.0337 2.39114 18.5123 2.39163L18.5128 2.89163ZM9.3778 2.89374C12.4227 2.89399 15.4677 2.89424 18.5128 2.89163L18.5124 2.39163C15.4675 2.39424 12.4228 2.39399 9.37784 2.39374L9.3778 2.89374ZM6.67125 2.89359C7.57343 2.89359 8.47561 2.89366 9.3778 2.89374L9.37784 2.39374C8.47565 2.39366 7.57345 2.39359 6.67125 2.39359V2.89359ZM6.66146 2.89359C6.66468 2.89359 6.66796 2.89359 6.67125 2.89359V2.39359C6.66809 2.39359 6.66492 2.39359 6.66168 2.39359L6.66146 2.89359ZM6.57154 2.89484C6.59859 2.8936 6.62666 2.89357 6.66147 2.89359L6.66168 2.39359C6.6288 2.39357 6.5892 2.39351 6.54873 2.39536L6.57154 2.89484ZM5.4869 4.01842C5.49252 3.66596 5.60403 3.3977 5.78107 3.2145C5.95806 3.03136 6.22157 2.91145 6.57198 2.89482L6.54829 2.39538C6.09319 2.41698 5.70155 2.57728 5.42153 2.86704C5.14158 3.15672 4.99424 3.55401 4.98697 4.01045L5.4869 4.01842ZM5.48635 4.24881C5.486 4.17048 5.48567 4.09425 5.4869 4.0185L4.98697 4.01037C4.98564 4.09216 4.98601 4.17355 4.98635 4.25104L5.48635 4.24881ZM5.48667 4.3563C5.48667 4.32044 5.48651 4.28439 5.48635 4.24881L4.98635 4.25104C4.98651 4.28681 4.98667 4.32174 4.98667 4.3563H5.48667ZM0.912136 4.6063H5.23667V4.1063H0.912136V4.6063ZM0.662136 4.0715V4.3563H1.16214V4.0715H0.662136ZM0.662171 3.39167C0.662153 3.61828 0.662136 3.84489 0.662136 4.0715H1.16214C1.16214 3.84491 1.16215 3.61832 1.16217 3.39171L0.662171 3.39167ZM0.661247 0.672683C0.662313 1.57895 0.662242 2.48524 0.662171 3.39167L1.16217 3.39171C1.16224 2.48533 1.16231 1.57873 1.16125 0.672094L0.661247 0.672683ZM0.645706 0.441129C0.659584 0.502086 0.661154 0.572857 0.661247 0.672621L1.16125 0.672156C1.16116 0.580453 1.16149 0.454247 1.13323 0.330137L0.645706 0.441129ZM0.487081 0.301355C0.543238 0.304211 0.573694 0.32043 0.591463 0.335742C0.609806 0.351549 0.632209 0.381652 0.645668 0.44096L1.13327 0.330306C1.1006 0.186324 1.03126 0.0546949 0.917852 -0.0430322C0.803866 -0.141254 0.662544 -0.190367 0.512479 -0.198L0.487081 0.301355ZM0.316805 0.411679C0.332964 0.357657 0.355602 0.33511 0.372582 0.323895C0.391408 0.311461 0.426079 0.298251 0.487079 0.301355L0.512481 -0.198C0.369036 -0.205297 0.223041 -0.176551 0.0970222 -0.093318C-0.0308416 -0.00886671 -0.117227 0.117964 -0.162223 0.268387L0.316805 0.411679ZM0.295291 0.624566C0.295291 0.534469 0.300759 0.465377 0.316826 0.41161L-0.162243 0.268456C-0.200044 0.394956 -0.204709 0.524441 -0.204709 0.624566H0.295291ZM0.295291 19.3752C0.293869 13.125 0.293958 6.87481 0.295291 0.62462L-0.204709 0.624513C-0.206042 6.87477 -0.206131 13.125 -0.204709 19.3753L0.295291 19.3752ZM0.294521 19.4307C0.294876 19.4141 0.295309 19.3944 0.295291 19.375L-0.204709 19.3755C-0.204697 19.3883 -0.204985 19.4023 -0.205365 19.42L0.294521 19.4307ZM0.28122 19.5043C0.291929 19.5184 0.295862 19.5297 0.296767 19.5325C0.297608 19.5352 0.296664 19.5331 0.295664 19.5241C0.294686 19.5152 0.294023 19.5032 0.293862 19.4866C0.2937 19.4699 0.294056 19.4524 0.294521 19.4307L-0.205365 19.42C-0.206188 19.4584 -0.207887 19.5193 -0.201325 19.5789C-0.194991 19.6363 -0.178073 19.7261 -0.117215 19.8064L0.28122 19.5043ZM0.463433 19.6847C0.465168 19.6851 0.444201 19.6796 0.401257 19.6407C0.361609 19.6048 0.320891 19.5567 0.281293 19.5044L-0.117289 19.8063C-0.0703091 19.8683 -0.00782652 19.9448 0.0656138 20.0113C0.135759 20.0749 0.23777 20.1496 0.365639 20.1751L0.463433 19.6847ZM0.59754 19.6262C0.598353 19.6252 0.593328 19.6314 0.578533 19.6413C0.564533 19.6507 0.546583 19.6602 0.526682 19.6681C0.506687 19.676 0.488427 19.6807 0.474357 19.6829C0.459117 19.6852 0.456296 19.6833 0.463563 19.6848L0.365508 20.175C0.489357 20.1998 0.616893 20.17 0.710389 20.1331C0.805646 20.0955 0.913592 20.0315 0.987798 19.9388L0.59754 19.6262ZM0.657343 19.3481C0.656871 19.4085 0.650895 19.4707 0.638304 19.5246C0.625161 19.581 0.608485 19.6126 0.597546 19.6262L0.987792 19.9388C1.06272 19.8453 1.1028 19.7344 1.12523 19.6382C1.14822 19.5397 1.15664 19.4393 1.15733 19.352L0.657343 19.3481ZM0.662558 16.7159C0.663245 17.5942 0.66393 18.4714 0.657343 19.3482L1.15733 19.352C1.16393 18.4727 1.16324 17.5935 1.16256 16.7155L0.662558 16.7159ZM0.662136 15.9066C0.662136 16.1764 0.662347 16.4462 0.662558 16.7159L1.16256 16.7155C1.16235 16.4458 1.16214 16.1762 1.16214 15.9066H0.662136ZM0.662136 15.636V15.9066H1.16214V15.636H0.662136ZM11.0469 6.1078V6.3622H11.5469V6.1078H11.0469ZM13.9031 5.8578H11.2969V6.3578H13.9031V5.8578ZM14.1531 7.57794V6.1078H13.6531V7.57794H14.1531ZM14.1527 7.76236C14.1529 7.70126 14.1531 7.63964 14.1531 7.57794H13.6531C13.6531 7.63861 13.6529 7.69934 13.6527 7.76059L14.1527 7.76236ZM14.1537 8.17409C14.1517 8.03799 14.1522 7.90152 14.1527 7.76236L13.6527 7.76059C13.6522 7.89899 13.6517 8.04002 13.6538 8.18143L14.1537 8.17409ZM14.4349 8.45327C14.2686 8.45222 14.2197 8.41811 14.2051 8.40356C14.1902 8.38868 14.1562 8.33953 14.1537 8.17397L13.6538 8.18154C13.657 8.3919 13.6984 8.6043 13.8521 8.7576C14.0061 8.91123 14.2192 8.95192 14.4317 8.95326L14.4349 8.45327ZM15.7116 8.45474C15.2852 8.45531 14.8599 8.45589 14.4348 8.45327L14.4317 8.95326C14.8591 8.95589 15.2862 8.95531 15.7123 8.95474L15.7116 8.45474ZM16.2549 8.45425C16.0737 8.45425 15.8926 8.45449 15.7116 8.45474L15.7123 8.95474C15.8933 8.95449 16.0741 8.95425 16.2549 8.95425V8.45425ZM16.4713 8.45425H16.2549V8.95425H16.4713V8.45425ZM16.7213 11.2958V8.70425H16.2213V11.2958H16.7213ZM14.8503 11.5458H16.4713V11.0458H14.8503V11.5458ZM14.7103 11.545C14.756 11.5454 14.8031 11.5458 14.8503 11.5458V11.0458C14.8055 11.0458 14.7606 11.0454 14.7144 11.045L14.7103 11.545ZM14.4143 11.5466C14.5103 11.5434 14.6072 11.5442 14.7103 11.545L14.7144 11.045C14.6132 11.0442 14.5059 11.0433 14.3978 11.0468L14.4143 11.5466ZM14.1546 11.8066C14.1556 11.6608 14.1875 11.615 14.2022 11.6002C14.218 11.5843 14.2659 11.5516 14.4145 11.5465L14.3976 11.0468C14.1957 11.0536 13.9942 11.1001 13.8474 11.248C13.6996 11.3968 13.656 11.5993 13.6546 11.8031L14.1546 11.8066ZM14.1527 13.0842C14.152 12.6574 14.1514 12.232 14.1546 11.8067L13.6546 11.803C13.6514 12.2309 13.652 12.6585 13.6527 13.0849L14.1527 13.0842ZM14.1531 13.6265C14.1532 13.4456 14.1529 13.2648 14.1527 13.0842L13.6527 13.0849C13.6529 13.2656 13.6532 13.446 13.6531 13.6264L14.1531 13.6265ZM14.1531 13.886V13.6265H13.6531V13.886H14.1531ZM11.2969 14.136H13.9031V13.636H11.2969V14.136ZM11.0469 13.6553V13.886H11.5469V13.6553H11.0469ZM11.0471 13.1259C11.047 13.3023 11.0469 13.4788 11.0469 13.6553H11.5469C11.5469 13.479 11.547 13.3026 11.5471 13.1262L11.0471 13.1259ZM11.0464 11.8568C11.0477 12.2795 11.0474 12.7025 11.0471 13.1259L11.5471 13.1262C11.5474 12.7029 11.5477 12.2791 11.5464 11.8552L11.0464 11.8568ZM10.7277 11.5462C10.9128 11.5468 10.9713 11.5835 10.9907 11.6026C11.0093 11.6209 11.0459 11.676 11.0464 11.8567L11.5464 11.8553C11.5457 11.6306 11.5041 11.4065 11.3417 11.2465C11.1803 11.0875 10.9554 11.0469 10.7292 11.0462L10.7277 11.5462ZM9.50027 11.5456C9.9098 11.5453 10.3188 11.545 10.7277 11.5462L10.7292 11.0462C10.3192 11.045 9.90931 11.0453 9.49993 11.0456L9.50027 11.5456ZM8.97363 11.5458C9.14923 11.5458 9.3248 11.5457 9.50027 11.5456L9.49993 11.0456C9.32443 11.0457 9.14903 11.0458 8.97363 11.0458V11.5458ZM8.71905 11.5458H8.97363V11.0458H8.71905V11.5458ZM8.46905 8.70425V11.2958H8.96905V8.70425H8.46905ZM8.95585 8.45425H8.71905V8.95425H8.95585V8.45425ZM9.48914 8.45449C9.31145 8.45437 9.13366 8.45425 8.95585 8.45425V8.95425C9.13346 8.95425 9.31108 8.95437 9.4888 8.95449L9.48914 8.45449ZM10.7322 8.4538C10.3181 8.45505 9.90387 8.45477 9.48914 8.45449L9.4888 8.95449C9.90337 8.95477 10.3185 8.95505 10.7337 8.9538L10.7322 8.4538ZM11.0465 8.1386C11.0459 8.32189 11.0093 8.37888 10.9904 8.39779C10.9716 8.41659 10.915 8.45325 10.7322 8.4538L10.7337 8.9538C10.9591 8.95311 11.1836 8.91195 11.3443 8.75104C11.5048 8.59023 11.5458 8.36563 11.5465 8.14012L11.0465 8.1386ZM11.0471 6.89178C11.0474 7.30778 11.0477 7.72325 11.0465 8.13865L11.5465 8.14007C11.5477 7.72366 11.5474 7.30733 11.5471 6.89147L11.0471 6.89178ZM11.0469 6.3622C11.0469 6.53877 11.047 6.71533 11.0471 6.89178L11.5471 6.89147C11.547 6.71499 11.5469 6.53859 11.5469 6.3622H11.0469ZM14.7636 8.07914C14.9747 8.07914 15.1825 8.0791 15.388 8.07907L15.3879 7.57907C15.1824 7.5791 14.9747 7.57914 14.7636 7.57914V8.07914ZM14.5136 7.55891V7.82914H15.0136V7.55891H14.5136ZM14.514 7.03367C14.5138 7.20862 14.5136 7.38375 14.5136 7.55891H15.0136C15.0136 7.3841 15.0138 7.20927 15.014 7.03427L14.514 7.03367ZM14.5125 5.76057C14.515 6.18448 14.5145 6.60854 14.514 7.03367L15.014 7.03427C15.0145 6.60944 15.015 6.1836 15.0125 5.75761L14.5125 5.76057ZM14.2419 5.48767C14.3791 5.48805 14.4332 5.52166 14.4554 5.54402C14.4781 5.56678 14.5117 5.62208 14.5125 5.76055L15.0125 5.75763C15.0113 5.54668 14.9595 5.34176 14.8099 5.1914C14.6599 5.04065 14.4551 4.98826 14.2433 4.98767L14.2419 5.48767ZM10.9549 5.48785C12.0506 5.48447 13.1463 5.48465 14.2419 5.48767L14.2433 4.98767C13.1468 4.98465 12.0501 4.98447 10.9534 4.98785L10.9549 5.48785ZM10.6873 5.75697C10.688 5.61246 10.7213 5.56021 10.7405 5.54084C10.7593 5.52191 10.8106 5.48828 10.9549 5.48785L10.9534 4.98785C10.7426 4.98848 10.5362 5.03707 10.3858 5.18845C10.2359 5.3394 10.1883 5.54554 10.1873 5.75446L10.6873 5.75697ZM10.6861 7.0402C10.6857 6.61183 10.6853 6.18428 10.6873 5.75688L10.1873 5.75454C10.1853 6.18359 10.1857 6.61256 10.1861 7.04069L10.6861 7.0402ZM10.6865 7.57767C10.6865 7.39846 10.6863 7.21926 10.6861 7.0402L10.1861 7.04069C10.1863 7.21979 10.1865 7.39875 10.1865 7.57767H10.6865ZM10.6865 7.82914V7.57767H10.1865V7.82914H10.6865ZM9.81581 8.07875C10.0204 8.07894 10.227 8.07914 10.4365 8.07914V7.57914C10.2273 7.57914 10.0209 7.57894 9.81628 7.57875L9.81581 8.07875ZM8.38607 8.08002C8.8586 8.07784 9.33129 8.07829 9.81581 8.07875L9.81628 7.57875C9.33201 7.57829 8.85792 7.57784 8.38376 7.58003L8.38607 8.08002ZM8.0799 8.38915C8.08019 8.22709 8.11667 8.16604 8.14094 8.14161C8.165 8.11738 8.22514 8.08077 8.38607 8.08002L8.38376 7.58003C8.16043 7.58106 7.94341 7.63098 7.7862 7.78924C7.62921 7.9473 7.58031 8.16469 7.5799 8.38823L8.0799 8.38915ZM8.07998 11.61C8.07759 10.5364 8.07776 9.46284 8.0799 8.38919L7.5799 8.38819C7.57776 9.46245 7.57758 10.5368 7.57999 11.6111L8.07998 11.61ZM8.40697 11.9206C8.23126 11.9201 8.16628 11.8829 8.14104 11.8584C8.1177 11.8358 8.08036 11.7774 8.07998 11.61L7.57999 11.6111C7.5805 11.838 7.62952 12.0591 7.79319 12.2176C7.95498 12.3743 8.17768 12.4199 8.40553 12.4206L8.40697 11.9206ZM9.40581 11.9212C9.07253 11.9213 8.7397 11.9215 8.40693 11.9206L8.40558 12.4206C8.73923 12.4215 9.07283 12.4213 9.40597 12.4212L9.40581 11.9212ZM10.1842 11.9214C9.92464 11.9211 9.66509 11.9211 9.40581 11.9212L9.40598 12.4212C9.66533 12.4211 9.92442 12.4211 10.1835 12.4214L10.1842 11.9214ZM10.3631 11.9284C10.3059 11.9251 10.2456 11.9215 10.1841 11.9214L10.1836 12.4214C10.2283 12.4215 10.2743 12.4241 10.3342 12.4276L10.3631 11.9284ZM10.4483 11.933C10.4189 11.9316 10.3911 11.93 10.3631 11.9284L10.3342 12.4276C10.3619 12.4292 10.3922 12.4309 10.4246 12.4325L10.4483 11.933ZM10.6863 12.7885C10.6864 12.5881 10.6865 12.3863 10.6865 12.1827H10.1865C10.1865 12.3862 10.1864 12.5878 10.1863 12.7883L10.6863 12.7885ZM10.687 14.2207C10.6858 13.7459 10.686 13.2711 10.6863 12.7885L10.1863 12.7883C10.186 13.2707 10.1858 13.7462 10.187 14.222L10.687 14.2207ZM10.9762 14.5128C10.8108 14.5125 10.7581 14.4772 10.7406 14.4596C10.7226 14.4414 10.6875 14.3873 10.687 14.2206L10.187 14.2221C10.1877 14.439 10.2304 14.6552 10.3856 14.8117C10.5414 14.9687 10.7575 15.0124 10.9752 15.0128L10.9762 14.5128ZM14.2192 14.5129C13.1382 14.5148 12.0571 14.515 10.9762 14.5128L10.9752 15.0128C12.0569 15.015 13.1385 15.0148 14.2201 15.0129L14.2192 14.5129ZM14.5129 14.2184C14.5122 14.3767 14.4767 14.4339 14.455 14.4556C14.4335 14.4771 14.3769 14.5126 14.2192 14.5129L14.2201 15.0129C14.439 15.0125 14.6532 14.9647 14.8088 14.8089C14.9642 14.6533 15.012 14.4391 15.0129 14.2204L14.5129 14.2184ZM14.5139 12.9492C14.5143 13.3728 14.5146 13.7957 14.5129 14.2184L15.0129 14.2205C15.0146 13.7963 15.0143 13.3722 15.0139 12.9488L14.5139 12.9492ZM14.5136 12.4196C14.5136 12.5962 14.5137 12.7728 14.5139 12.9492L15.0139 12.9488C15.0137 12.7723 15.0136 12.596 15.0136 12.4196H14.5136ZM14.5136 12.1709V12.4196H15.0136V12.1709H14.5136ZM15.3719 11.921C15.1716 11.9209 14.9692 11.9209 14.7636 11.9209V12.4209C14.9691 12.4209 15.1716 12.4209 15.3718 12.421L15.3719 11.921ZM16.7288 11.9208C16.2803 11.9211 15.8319 11.921 15.3719 11.921L15.3718 12.421C15.8318 12.421 16.2804 12.4211 16.7291 12.4208L16.7288 11.9208ZM17.1062 11.5556C17.106 11.7928 17.0675 11.85 17.0516 11.8656C17.0339 11.8829 16.9717 11.9207 16.7288 11.9208L16.729 12.4208C16.977 12.4207 17.2282 12.3924 17.4013 12.2229C17.5762 12.0517 17.606 11.8015 17.6062 11.556L17.1062 11.5556ZM17.1063 8.44517C17.1072 9.48193 17.1073 10.5188 17.1062 11.5555L17.6062 11.5561C17.6073 10.5189 17.6072 9.48176 17.6063 8.44474L17.1063 8.44517ZM16.7295 8.07922C16.9684 8.07935 17.0316 8.11758 17.0502 8.13586C17.0674 8.15269 17.1061 8.21141 17.1063 8.44519L17.6063 8.44473C17.6061 8.19913 17.5748 7.95012 17.4004 7.77899C17.2275 7.60931 16.9776 7.57936 16.7298 7.57922L16.7295 8.07922ZM15.388 8.07907C15.8428 8.07899 16.2861 8.07892 16.7295 8.07922L16.7298 7.57922C16.2862 7.57892 15.8426 7.57899 15.3879 7.57907L15.388 8.07907Z" fill="black"/>
</svg>
