<svg width="17" height="15" viewBox="0 0 17 15" fill="none" xmlns="http://www.w3.org/2000/svg">
<path fill-rule="evenodd" clip-rule="evenodd" d="M8.0671 13.7629V13.7602L8.33375 13.7601L8.86701 13.7602L9.57392 13.7606C10.7955 13.7612 12.0171 13.7618 13.2387 13.7646C13.3267 13.7648 13.3561 13.7421 13.3554 13.6506C13.3507 13.043 13.3507 12.4353 13.3508 11.8276C13.3513 10.0975 13.3519 8.3674 13.3552 6.6373C13.3554 6.55522 13.3309 6.49854 13.2715 6.4442C12.9102 6.11341 12.5502 5.78121 12.1902 5.449L12.1897 5.44857L11.9037 5.18472L9.78495 3.23044L9.46414 2.93456L9.46386 2.93431C9.02176 2.52665 8.57966 2.11898 8.13934 1.70941C8.08053 1.65469 8.04644 1.65596 7.98804 1.71019C7.17286 2.46759 6.3559 3.22307 5.53831 3.97783C4.65018 4.79762 3.76161 5.61696 2.87088 6.43385C2.80325 6.49589 2.77734 6.55798 2.77742 6.6491C2.77946 8.64166 2.7794 10.6342 2.77934 12.6268L2.77932 13.6358C2.77932 13.7628 2.77939 13.7629 2.90471 13.7629L8.0671 13.7629ZM1.57987 7.6289L0.816363 8.33233L0.00576782 7.45482L0.19332 7.28085L0.193461 7.28072C0.337962 7.14665 0.479302 7.01552 0.620879 6.88463L0.673922 6.83558C1.13639 6.40796 1.59887 5.98032 2.06177 5.5532C2.30062 5.33285 2.53964 5.11268 2.77867 4.89251L2.77885 4.89234C3.08005 4.6149 3.38125 4.33746 3.68211 4.05964C3.95544 3.80723 4.22849 3.5545 4.50154 3.30177C4.8176 3.00923 5.13366 2.71669 5.45017 2.42464C5.78897 2.11203 6.12823 1.79992 6.46749 1.48781L6.4678 1.48753L6.46864 1.48676C6.71745 1.25787 6.96626 1.02897 7.21489 0.799877L7.24795 0.76941C7.49904 0.538006 7.75016 0.306583 7.99868 0.0723588C8.04759 0.0262421 8.07778 0.0227062 8.12892 0.0701255C9.05159 0.925191 9.97578 1.77862 10.9 2.63205L10.9003 2.63234L10.9011 2.63308C11.0524 2.77281 11.2042 2.91202 11.3603 3.05522L11.5852 3.26159V2.00248C11.599 2.00113 11.6116 1.99962 11.6234 1.9982C11.6466 1.99541 11.6666 1.993 11.6866 1.99295C11.7967 1.99274 11.9068 1.99285 12.0169 1.99296H12.017C12.2387 1.99317 12.4604 1.99338 12.682 1.99102C12.7604 1.99016 12.7823 2.01752 12.7819 2.09308C12.7789 2.60657 12.7781 3.12011 12.7773 3.63364V3.63431L12.7768 3.95338C12.7768 3.97129 12.7782 3.9894 12.7796 4.00748V4.00749V4.00751C12.7821 4.03949 12.7846 4.07138 12.779 4.10189C12.7419 4.30359 12.8408 4.42988 12.9839 4.55959C13.4721 5.00204 13.9555 5.44982 14.4389 5.89761L14.4394 5.89803C14.6311 6.07565 14.8229 6.25328 15.015 6.43057C15.3588 6.74799 15.7032 7.06463 16.048 7.38108C16.0629 7.39482 16.0797 7.4066 16.0996 7.42061L16.0997 7.42063C16.11 7.4279 16.1213 7.43578 16.1335 7.44484L15.3148 8.33211L14.5522 7.63087C14.5509 7.64554 14.5494 7.65817 14.5481 7.66949C14.5457 7.69028 14.5439 7.70663 14.5439 7.72299C14.544 8.34315 14.5442 8.96331 14.5445 9.58347V9.58349C14.5448 10.3275 14.5451 11.0716 14.5451 11.8157C14.5451 12.1387 14.5449 12.4617 14.5447 12.7846L14.5447 12.7887C14.5442 13.4751 14.5438 14.1616 14.5455 14.848C14.5458 14.9383 14.5191 14.9631 14.4305 14.9628C13.8117 14.9607 13.1929 14.961 12.5741 14.9613H12.5733L11.9652 14.9616L7.31363 14.9616H3.35058C2.80481 14.9616 2.25901 14.9614 1.71324 14.961C1.58017 14.9609 1.57991 14.9602 1.57991 14.8289L1.57987 7.81411V7.6289ZM6.28644 10.5358L6.28618 10.324C6.28582 10.1342 6.28547 9.94449 6.28767 9.75476C6.28845 9.68888 6.27375 9.66148 6.20068 9.6623C5.87526 9.66599 5.54976 9.66599 5.22431 9.6623C5.15065 9.66148 5.13721 9.69063 5.13743 9.75547C5.13933 10.2731 5.1394 10.7908 5.13739 11.3084C5.13713 11.3772 5.15213 11.4071 5.22978 11.4061C5.55207 11.402 5.87452 11.4018 6.19681 11.4062C6.27598 11.4073 6.28826 11.3751 6.28756 11.3076C6.28555 11.1202 6.28587 10.9328 6.2862 10.7454L6.28644 10.5358ZM7.48715 10.5329L7.48711 12.4862C7.48707 12.6074 7.48677 12.6077 7.36335 12.6078C6.26258 12.6078 5.16181 12.6079 4.06104 12.6077C3.93933 12.6077 3.93911 12.6073 3.93907 12.4852L3.93914 11.6831C3.9393 10.6483 3.93946 9.61338 3.9368 8.57854C3.93654 8.48192 3.96542 8.46055 4.05721 8.46081C5.16099 8.46379 6.26474 8.46383 7.36849 8.46081C7.46113 8.46055 7.48997 8.4837 7.48934 8.57959C7.48619 9.07239 7.48655 9.56519 7.48691 10.058L7.48715 10.5329ZM10.6987 9.66427C10.7947 9.66422 10.8914 9.66417 10.989 9.66417C10.9896 9.6788 10.9904 9.69193 10.9911 9.70408C10.9924 9.72806 10.9935 9.74817 10.9935 9.76831C10.9936 9.9109 10.9935 10.0535 10.9934 10.1961C10.9931 10.5651 10.9928 10.9341 10.9957 11.3031C10.9963 11.387 10.9706 11.4072 10.8904 11.4061C10.5773 11.4019 10.2641 11.4022 9.95095 11.406C9.87316 11.4069 9.84152 11.3899 9.84212 11.3041C9.8446 10.9508 9.84443 10.5975 9.84426 10.2442C9.84418 10.0828 9.8441 9.92142 9.84428 9.76001C9.84429 9.75468 9.84412 9.74923 9.84396 9.74377C9.84275 9.70382 9.84153 9.66334 9.90808 9.66357C10.17 9.66456 10.4319 9.66441 10.6987 9.66427ZM8.64723 10.0853C8.64715 10.235 8.64708 10.3846 8.64707 10.5343C8.64707 10.6918 8.64717 10.8494 8.64727 11.0069C8.64757 11.5004 8.64788 11.9939 8.64517 12.4874C8.64469 12.5774 8.66278 12.6104 8.7613 12.61C9.86817 12.6065 10.975 12.6069 12.0818 12.6096C12.1727 12.6098 12.1966 12.5804 12.1964 12.4924C12.1941 11.1872 12.194 9.88206 12.1966 8.57691C12.1967 8.48836 12.1725 8.46067 12.082 8.46093C10.9722 8.46376 9.86233 8.46376 8.75252 8.46085C8.6643 8.46059 8.64502 8.48925 8.6454 8.57188C8.64775 9.07639 8.64749 9.58087 8.64723 10.0853Z" fill="#0F6E94"/>
</svg>
