<svg width="17" height="15" viewBox="0 0 17 15" fill="none" xmlns="http://www.w3.org/2000/svg">
<path fill-rule="evenodd" clip-rule="evenodd" d="M14.8878 13.7065V13.3055L14.8878 12.0445V12.041C14.8879 9.05479 14.888 6.06858 14.8905 3.08236C14.8906 2.9931 14.8577 2.95225 14.7833 2.91529C13.8239 2.43825 12.8651 1.95993 11.9084 1.47751C11.8238 1.43483 11.7608 1.4413 11.6805 1.48176C10.727 1.96141 9.77246 2.43899 8.81626 2.91322C8.73247 2.95477 8.71022 3.00539 8.71052 3.09416C8.71316 3.86912 8.71299 4.64409 8.71282 5.41906V5.41985L8.71274 5.91806L8.71274 6.71918C8.71278 9.00894 8.71281 11.2987 8.71047 13.5884C8.71037 13.6853 8.73805 13.7256 8.83471 13.7153C8.85229 13.7134 8.87017 13.7145 8.88809 13.7156C8.89904 13.7163 8.91 13.717 8.92091 13.717C10.8488 13.7171 12.7766 13.7172 14.7044 13.7167C14.742 13.7166 14.7796 13.7139 14.8211 13.7109C14.8422 13.7094 14.8642 13.7078 14.8878 13.7065ZM7.44144 8.32181L7.44141 7.46102C7.44133 6.00096 7.44126 4.54091 7.44312 3.08083C7.44321 2.99557 7.41726 2.95037 7.33876 2.91144C6.39114 2.44126 5.44471 1.96866 4.5007 1.49123C4.39723 1.43893 4.31902 1.44149 4.21683 1.49315C3.27573 1.96886 2.33241 2.44023 1.38765 2.90873C1.29805 2.95319 1.26307 3.00332 1.26346 3.10541C1.2665 3.88446 1.26624 4.6635 1.26598 5.44258V5.44258V5.44259V5.44259V5.4426V5.44261V5.44261V5.44262V5.44262V5.44263V5.44263V5.44264V5.44265V5.44265V5.44266V5.44266L1.26583 6.10136L1.26582 7.74527V7.74528V7.74528V7.74529V7.74529V7.7453V7.7453V7.74531V7.74531V7.74532V7.74533V7.74533V7.74534V7.74534V7.74535V7.74535C1.2658 9.66322 1.26578 11.5811 1.26598 13.4989C1.26598 13.5193 1.26584 13.5379 1.26571 13.5547C1.26506 13.6391 1.26474 13.68 1.28505 13.6996C1.3042 13.7181 1.34169 13.7175 1.41453 13.7164H1.41463C1.43553 13.7161 1.45935 13.7157 1.48649 13.7157C2.95399 13.7177 4.42149 13.7175 5.88899 13.7174L7.25759 13.7173H7.25819C7.44124 13.7173 7.44144 13.7173 7.44144 13.5381V8.32181ZM8.06986 14.9832L6.79271 14.9832H6.79071C4.75871 14.9831 2.72668 14.9829 0.694645 14.9857C0.570401 14.9859 0.473543 14.9647 0.395829 14.8613C0.334398 14.7795 0.265368 14.7009 0.188247 14.6341C0.0347433 14.501 0.00212821 14.3365 0.00257228 14.1406C0.00601612 12.5717 0.00580596 11.0027 0.0055958 9.43383C0.00551087 8.79982 0.00542594 8.1658 0.00558215 7.53179C0.00570614 6.98704 0.00606866 6.44228 0.00643118 5.89752C0.00722282 4.70793 0.00801447 3.51832 0.00632228 2.32871C0.00612492 2.21542 0.0388881 2.15606 0.142704 2.1045L0.556043 1.89941L0.556086 1.89939C1.71861 1.32266 2.8812 0.745889 4.03515 0.152479C4.27589 0.0286306 4.45195 0.0361306 4.68696 0.157167C5.42166 0.535775 6.16134 0.904738 6.90103 1.27371L6.90106 1.27372L6.90108 1.27373L6.90109 1.27374L6.90114 1.27376C7.26355 1.45454 7.62597 1.63532 7.9878 1.81723C8.0554 1.85123 8.10682 1.84526 8.16983 1.81368C8.62355 1.58624 9.07745 1.35915 9.53136 1.13205L9.53173 1.13187L9.53323 1.13112L9.53338 1.13104L9.53342 1.13102C10.2463 0.774344 10.9592 0.417668 11.6714 0.0596668C11.7564 0.0169858 11.8227 0.0119036 11.9111 0.0564102C12.7596 0.483642 13.6096 0.908011 14.4595 1.33237L14.4595 1.3324L15.1893 1.69684C15.2764 1.74034 15.3633 1.78416 15.4502 1.82799L15.4503 1.82803L15.4505 1.82811L15.4505 1.82813L15.4505 1.82814C15.6491 1.92825 15.8477 2.02836 16.048 2.12473C16.1263 2.16243 16.1553 2.21014 16.1552 2.29526C16.1534 3.26153 16.1533 4.22779 16.1533 5.19406L16.1532 5.82213L16.1526 9.2257L16.1524 13.2953C16.1525 13.3794 16.1521 13.4634 16.1517 13.5475V13.5477C16.1506 13.7678 16.1496 13.9878 16.1559 14.2077C16.16 14.348 16.1314 14.4622 16.0286 14.5629C15.9232 14.6662 15.826 14.7786 15.7318 14.8924C15.674 14.9621 15.6095 14.9852 15.5191 14.9851C13.5597 14.9831 11.6002 14.9831 9.64075 14.9832L8.56318 14.9832H8.06986ZM3.75234 4.43549C3.75233 4.48554 3.75215 4.53558 3.75198 4.58562C3.75154 4.71197 3.75111 4.83832 3.75323 4.96464C3.75446 5.03756 3.72875 5.06673 3.65346 5.06623C3.29662 5.06377 2.93973 5.06391 2.58283 5.06618C2.51045 5.06663 2.47981 5.04299 2.4803 4.9674C2.48262 4.61056 2.48242 4.25372 2.4803 3.89687C2.47986 3.82429 2.50611 3.79217 2.58007 3.79242C2.93696 3.79375 3.2938 3.79419 3.65065 3.79207C3.73398 3.79163 3.75471 3.8315 3.75338 3.9064C3.75118 4.03101 3.7516 4.15564 3.75201 4.28027V4.2803V4.28031V4.28031V4.28032V4.28032V4.28033V4.28033V4.28034V4.28035V4.28035V4.28036C3.75218 4.33207 3.75235 4.38378 3.75234 4.43549ZM2.48156 11.7167C2.48141 11.7677 2.48125 11.8187 2.48125 11.8698C2.48124 11.9217 2.48146 11.9736 2.48168 12.0255C2.48221 12.1501 2.48274 12.2747 2.48002 12.3993C2.47824 12.48 2.51145 12.5082 2.58902 12.5079C2.94201 12.5061 3.295 12.5064 3.648 12.5075C3.71757 12.5077 3.75374 12.4854 3.75324 12.408C3.75097 12.051 3.75097 11.6939 3.75329 11.3367C3.75379 11.2615 3.72418 11.2368 3.65111 11.2373C3.29407 11.2396 2.93693 11.2396 2.57984 11.2373C2.50361 11.2368 2.47933 11.2684 2.48041 11.3403C2.48231 11.4658 2.48193 11.5912 2.48156 11.7167V11.7167ZM3.12655 6.27862L3.27503 6.27893C3.4023 6.27931 3.52957 6.2797 3.65678 6.27778C3.72389 6.27674 3.75335 6.29934 3.75295 6.3697C3.75113 6.72733 3.75083 7.08497 3.7533 7.44255C3.75384 7.51903 3.71925 7.54444 3.64958 7.54434C3.29609 7.54375 2.94256 7.54345 2.58907 7.54469C2.51269 7.54498 2.47919 7.51691 2.47993 7.43534C2.48299 7.08595 2.48348 6.73651 2.47958 6.38717C2.47859 6.29796 2.51387 6.27506 2.59627 6.27719C2.72093 6.28039 2.84569 6.27976 2.97046 6.27913H2.97047H2.97047H2.97048H2.97048H2.97049H2.9705H2.9705H2.97051H2.97051H2.97052H2.97052H2.97053H2.97054C3.02254 6.27887 3.07455 6.2786 3.12655 6.27862ZM2.9578 10.0238C3.00901 10.024 3.06022 10.0242 3.11142 10.0242C3.16275 10.0242 3.21407 10.024 3.2654 10.0238C3.39478 10.0232 3.52416 10.0227 3.65349 10.0253C3.72889 10.027 3.75381 9.99816 3.75331 9.92464C3.75099 9.56735 3.75119 9.21012 3.75316 8.85288C3.75356 8.7838 3.72514 8.75607 3.65877 8.75622C3.29744 8.75691 2.93606 8.75691 2.57473 8.75676C2.50866 8.75676 2.48009 8.78582 2.48043 8.85446C2.48236 9.21169 2.48265 9.56898 2.48024 9.92627C2.47969 10.0014 2.50807 10.0268 2.58163 10.0253C2.70699 10.0228 2.8324 10.0233 2.9578 10.0238ZM4.97598 7.53662H6.21619V6.28372H4.97598V7.53662ZM4.96677 12.2487L4.96679 12.498H6.21514V11.2387L5.98342 11.2386H5.98331C5.66634 11.2383 5.356 11.2381 5.04569 11.2422C5.01948 11.2426 4.97434 11.2919 4.97167 11.3214C4.96464 11.4006 4.96547 11.4805 4.9663 11.5604C4.96658 11.5875 4.96686 11.6146 4.96684 11.6417L4.96677 12.2487ZM6.22463 4.4281C6.22463 4.47931 6.22439 4.53053 6.22414 4.58175C6.22356 4.70716 6.22297 4.83257 6.22591 4.95788C6.22774 5.03525 6.20602 5.06752 6.12274 5.06668C5.77364 5.06313 5.42449 5.06362 5.0754 5.06643C4.99912 5.06703 4.96537 5.04793 4.96625 4.96365C4.97 4.61051 4.9702 4.25732 4.96616 3.90423C4.96512 3.81551 5.00005 3.79114 5.08201 3.79173C5.42287 3.79425 5.76382 3.79459 6.10468 3.79148C6.1925 3.79069 6.2301 3.8162 6.22655 3.91084C6.22188 4.03255 6.22285 4.15446 6.22382 4.27637C6.22422 4.32695 6.22463 4.37753 6.22463 4.4281ZM4.98218 10.019H6.22393L6.22405 9.79548V9.79545V9.79543V9.79541V9.79539V9.79536V9.79534V9.79532V9.79529C6.22432 9.46715 6.22459 9.14662 6.21944 8.82616C6.21899 8.80228 6.15401 8.7596 6.11863 8.7591C5.89871 8.7559 5.67876 8.75591 5.45881 8.75593C5.33006 8.75593 5.20131 8.75594 5.07258 8.7553C4.99447 8.75491 4.96555 8.78397 4.96629 8.8645C4.96856 9.09496 4.96845 9.32545 4.96835 9.55596V9.5561C4.96829 9.6824 4.96823 9.80871 4.96856 9.93503C4.9686 9.9532 4.97247 9.97137 4.97655 9.9905L4.97655 9.99051C4.97852 9.99974 4.98053 10.0092 4.98218 10.019ZM13.6712 4.42675C13.6712 4.47712 13.671 4.5275 13.6708 4.57788C13.6702 4.70428 13.6697 4.83068 13.6723 4.95698C13.674 5.03385 13.6521 5.06741 13.5687 5.06662C13.2152 5.06321 12.8617 5.06346 12.5082 5.06647C12.4282 5.06716 12.3991 5.03869 12.3996 4.95925C12.402 4.60576 12.402 4.25228 12.3996 3.89879C12.399 3.81668 12.4356 3.79172 12.5115 3.79211C12.8609 3.79379 13.2103 3.79433 13.5597 3.79177C13.6453 3.79117 13.675 3.82428 13.6726 3.90895C13.6693 4.03039 13.67 4.15195 13.6707 4.27353V4.27354V4.27355V4.27356V4.27357V4.27358V4.27359V4.2736C13.6709 4.32465 13.6712 4.3757 13.6712 4.42675ZM12.4009 6.76452C12.4007 6.81363 12.4005 6.86274 12.4005 6.91185C12.4005 6.96212 12.4007 7.01239 12.401 7.06267V7.06276C12.4016 7.18483 12.4023 7.30692 12.3991 7.42891C12.3969 7.51259 12.4247 7.54649 12.5112 7.5458C12.86 7.54284 13.2088 7.54328 13.5575 7.54545C13.6394 7.54599 13.6739 7.51984 13.6729 7.43177C13.6688 7.08307 13.6696 6.73422 13.6724 6.38547C13.673 6.30761 13.65 6.27642 13.5677 6.27721C13.2149 6.28057 12.862 6.28111 12.5091 6.27692C12.4179 6.27578 12.3978 6.31491 12.3994 6.39484C12.4019 6.51805 12.4014 6.64128 12.4009 6.76452ZM9.9296 6.27826H10.6083C10.6548 6.27827 10.7013 6.27861 10.7478 6.27895L10.748 6.27895C10.8576 6.27975 10.9671 6.28055 11.0765 6.27712C11.159 6.27451 11.1964 6.29903 11.1958 6.38671C11.1931 6.73995 11.1936 7.09319 11.1956 7.44643C11.196 7.52276 11.1612 7.54561 11.0904 7.54526C10.8228 7.54399 10.5552 7.54414 10.2876 7.54428L10.0307 7.54438C9.97243 7.54442 9.92797 7.53648 9.92851 7.45842C9.93029 7.17515 9.93004 6.89187 9.92978 6.59953V6.59939V6.59924V6.5991V6.59895V6.5988L9.9296 6.27826ZM9.93567 11.2376V12.489C9.94539 12.492 9.9531 12.4948 9.95955 12.4972L9.95957 12.4972C9.97044 12.5012 9.97771 12.5038 9.98496 12.5039C10.1246 12.5044 10.2643 12.5047 10.4039 12.505C10.6383 12.5055 10.8727 12.506 11.1071 12.5074C11.182 12.5079 11.195 12.465 11.1949 12.4043L11.1948 12.3198C11.1943 11.9944 11.1939 11.669 11.1953 11.3437C11.1957 11.2654 11.166 11.2348 11.0854 11.2368C10.9587 11.2398 10.8319 11.2391 10.7051 11.2383C10.651 11.238 10.5969 11.2377 10.5428 11.2376L10.1127 11.2376L9.93567 11.2376ZM13.0357 11.2382C13.0864 11.2382 13.1371 11.2385 13.1877 11.2387H13.1878H13.1878H13.1878C13.3135 11.2393 13.4393 11.2399 13.565 11.237C13.6443 11.2351 13.6732 11.2626 13.6725 11.3432C13.6694 11.696 13.6693 12.049 13.6725 12.4018C13.6732 12.4847 13.6381 12.5082 13.5623 12.5078C13.2136 12.5061 12.8648 12.5058 12.5161 12.508C12.4327 12.5085 12.3987 12.4778 12.3994 12.3923C12.4022 12.0435 12.4026 11.6947 12.3993 11.346C12.3984 11.256 12.4383 11.2351 12.5187 11.237C12.641 11.2398 12.7634 11.2392 12.8857 11.2387H12.8858H12.8858C12.9358 11.2384 12.9858 11.2382 13.0357 11.2382ZM9.92989 4.83567L9.92998 5.06427L10.1499 5.06436C10.4826 5.06456 10.8051 5.06476 11.1276 5.06067C11.15 5.06042 11.1906 5.00846 11.1909 4.98019C11.1952 4.61506 11.1959 4.24983 11.1899 3.8847C11.1894 3.85386 11.135 3.79795 11.1049 3.79746C10.7398 3.79144 10.3745 3.79218 10.0093 3.79672C9.98258 3.79706 9.93363 3.84004 9.93334 3.86368C9.92948 4.18383 9.92968 4.50406 9.92989 4.83551V4.83559V4.83567ZM13.6711 9.39568C13.6711 9.44641 13.6709 9.49714 13.6707 9.54787C13.6702 9.6737 13.6697 9.79953 13.6723 9.92531C13.6739 9.99948 13.6481 10.026 13.573 10.0254C13.2158 10.0227 12.8585 10.0228 12.5014 10.0253C12.4272 10.0258 12.3994 9.99933 12.3998 9.92536C12.4018 9.56823 12.4016 9.21104 12.4 8.8539C12.3997 8.78531 12.4295 8.7566 12.4954 8.75665C12.8567 8.75689 13.2179 8.75699 13.5792 8.7563C13.6463 8.7562 13.6732 8.78541 13.6722 8.85385C13.67 8.98318 13.6704 9.11259 13.6708 9.24199C13.671 9.29322 13.6711 9.34445 13.6711 9.39568ZM9.97972 8.7628C9.96623 8.76441 9.95252 8.76605 9.93846 8.76738V10.0243C10.0434 10.0243 10.1476 10.0241 10.2513 10.0238C10.5265 10.0232 10.7978 10.0225 11.069 10.0266C11.1683 10.028 11.1972 9.99339 11.1962 9.89983C11.193 9.56288 11.1922 9.22587 11.1967 8.88896C11.198 8.78692 11.161 8.75273 11.0604 8.75401C10.8438 8.75681 10.6272 8.75649 10.4106 8.75617C10.2944 8.756 10.1781 8.75582 10.0618 8.75613C10.0348 8.7562 10.0077 8.75944 9.97972 8.7628Z" fill="#0F6E94"/>
</svg>
