<svg width="19" height="15" viewBox="0 0 19 15" fill="none" xmlns="http://www.w3.org/2000/svg">
<path fill-rule="evenodd" clip-rule="evenodd" d="M13.6626 7.8316C13.4757 7.25465 13.3147 6.71035 13.1214 6.17796C13.0079 5.86572 12.76 5.71296 12.4135 5.71363C10.3013 5.7176 8.18913 5.71715 6.07689 5.71396C5.77589 5.71352 5.54119 5.84311 5.43839 6.10749C5.221 6.66657 5.04255 7.24076 4.84016 7.8316H13.6626ZM14.1709 12.0652V11.8091C14.1709 11.0738 14.1598 10.3385 14.1769 9.60359C14.1833 9.32962 14.111 9.24469 13.8243 9.24568C10.7826 9.2566 7.74089 9.25263 4.69909 9.2523C4.32674 9.2523 4.27225 9.30315 4.27137 9.67649C4.2695 10.3932 4.26961 11.11 4.27071 11.8267C4.27082 11.9063 4.28196 11.9861 4.28792 12.0652H14.1709ZM13.4622 13.5089H4.96953C4.96953 13.7562 4.97372 13.9836 4.96865 14.2109C4.95917 14.6332 4.71365 14.883 4.3038 14.8944C3.86902 14.9065 3.60994 14.6743 3.58038 14.2428C3.5742 14.1513 3.5742 14.0591 3.57586 13.9674C3.58214 13.6139 3.59637 13.3023 3.23924 13.0294C3.02395 12.865 2.89942 12.4736 2.88387 12.1764C2.83799 11.2968 2.866 10.4134 2.86711 9.53157C2.86722 9.46826 2.87395 9.40197 2.89303 9.34197C3.27685 8.13359 3.64909 6.92135 4.05321 5.71969C4.33633 4.87804 5.17424 4.30572 6.06398 4.3044C8.18593 4.30142 10.308 4.30164 12.4299 4.3044C13.3154 4.3055 14.1429 4.84859 14.4365 5.68263C14.8046 6.72866 15.1335 7.78903 15.4577 8.84984C15.5395 9.11697 15.566 9.4087 15.5712 9.69006C15.5857 10.4705 15.5749 11.2515 15.5751 12.0323C15.5752 12.5305 15.4114 12.9449 14.9928 13.2466C14.928 13.2934 14.8882 13.4097 14.8824 13.497C14.8674 13.7256 14.8866 13.9563 14.8758 14.1855C14.8538 14.6508 14.5827 14.9072 14.1407 14.8952C13.7185 14.8836 13.4687 14.6135 13.4626 14.1585C13.4599 13.9491 13.4622 13.7395 13.4622 13.5089Z" fill="black"/>
<path fill-rule="evenodd" clip-rule="evenodd" d="M1.4403 14.8835H0.0552236C0.0503707 14.7744 0.0422089 14.6766 0.0422089 14.5788C0.0415471 11.096 0.0441942 7.61324 0.0359221 4.13037C0.0353707 3.8993 0.112025 3.79375 0.318937 3.70783C3.23258 2.49857 6.14225 1.28037 9.05589 0.0715447C9.15206 0.0316182 9.29401 0.0333829 9.39063 0.0734197C12.2873 1.27507 15.1796 2.48654 18.0767 3.68721C18.3198 3.78802 18.4147 3.90923 18.4139 4.18585C18.4029 7.66838 18.4068 11.1508 18.407 14.6332V14.873H16.993C16.993 14.7319 16.9931 14.5883 16.993 14.4449C16.9928 11.3298 16.9893 8.21489 16.9986 5.09996C16.9994 4.8582 16.9248 4.74879 16.7053 4.65802C14.2736 3.65202 11.8469 2.6339 9.41522 1.62757C9.30449 1.58169 9.14269 1.57684 9.03339 1.62206C6.58497 2.63522 4.14162 3.66085 1.69331 4.67434C1.48717 4.7596 1.43456 4.87143 1.43511 5.08309C1.44206 8.25338 1.44019 11.4237 1.4403 14.594C1.4403 14.6836 1.4403 14.7733 1.4403 14.8835Z" fill="black"/>
<path fill-rule="evenodd" clip-rule="evenodd" d="M6.38792 10.6702C6.38296 11.0593 6.0738 11.3645 5.68733 11.3616C5.28564 11.3587 4.97108 11.0377 4.98222 10.6423C4.99292 10.2619 5.3163 9.95617 5.70167 9.96212C6.08637 9.96819 6.39288 10.2844 6.38792 10.6702Z" fill="black"/>
<path fill-rule="evenodd" clip-rule="evenodd" d="M12.7604 11.3616C12.3761 11.3648 12.0576 11.0581 12.0488 10.6765C12.0399 10.2847 12.3639 9.95903 12.7601 9.96156C13.1456 9.96399 13.4533 10.2742 13.4543 10.6612C13.4553 11.0462 13.1459 11.3584 12.7604 11.3616Z" fill="black"/>
</svg>
