<svg width="17" height="17" viewBox="0 0 17 17" fill="none" xmlns="http://www.w3.org/2000/svg">
<path fill-rule="evenodd" clip-rule="evenodd" d="M1.31163 15.9784H15.8092C15.9749 15.9784 16.1092 15.844 16.1091 15.6783V7.49991C16.1091 7.33419 15.9748 7.19991 15.8091 7.19991H10.2749V1.37715C10.2749 1.21143 10.1406 1.07715 9.97491 1.07715H1.31163C1.14591 1.07715 1.01163 1.21143 1.01163 1.37715V15.6784C1.01163 15.8441 1.14591 15.9784 1.31163 15.9784ZM15.5092 15.3784H10.2621V7.79991H15.5092V15.3784ZM4.51503 15.3784H9.66219V11.3598H4.51503V15.3784ZM3.91491 15.3784H1.61163V11.3598H3.91491V15.3784ZM4.21503 10.7598H9.66219V7.49991C9.66219 7.46955 9.66675 7.44027 9.67503 7.41255V4.27983H1.61163V10.7598H4.21503ZM9.61163 3.67983H1.61163V1.67715H9.61163V3.67983Z" fill="#0F6E94"/>
<path d="M16.1091 15.6783H15.8091V15.6785L16.1091 15.6783ZM10.2749 7.19991H9.97491V7.49991H10.2749V7.19991ZM10.2621 15.3784H9.96207V15.6784H10.2621V15.3784ZM15.5092 15.3784V15.6784H15.8092V15.3784H15.5092ZM10.2621 7.79991V7.49991H9.96207V7.79991H10.2621ZM15.5092 7.79991H15.8092V7.49991H15.5092V7.79991ZM9.66219 15.3784V15.6784H9.96219V15.3784H9.66219ZM4.51503 15.3784H4.21503V15.6784H4.51503V15.3784ZM9.66219 11.3598H9.96219V11.0598H9.66219V11.3598ZM4.51503 11.3598V11.0598H4.21503V11.3598H4.51503ZM1.61163 15.3784H1.31163V15.6784H1.61163V15.3784ZM3.91491 15.3784V15.6784H4.21491V15.3784H3.91491ZM1.61163 11.3598V11.0598H1.31163V11.3598H1.61163ZM3.91491 11.3598H4.21491V11.0598H3.91491V11.3598ZM9.66219 10.7598V11.0598H9.96219V10.7598H9.66219ZM9.67503 7.41255L9.96248 7.49842L9.97503 7.4564V7.41255H9.67503ZM9.67503 4.27983H9.97503V3.97983H9.67503V4.27983ZM1.61163 4.27983V3.97983H1.31163V4.27983H1.61163ZM1.61163 10.7598H1.31163V11.0598H1.61163V10.7598ZM1.61163 3.67983H1.31163V3.97983H1.61163V3.67983ZM9.61163 3.67983V3.97983H9.91163V3.67983H9.61163ZM1.61163 1.67715V1.37715H1.31163V1.67715H1.61163ZM9.61163 1.67715H9.91163V1.37715H9.61163V1.67715ZM15.8092 15.6784H1.31163V16.2784H15.8092V15.6784ZM15.8091 15.6785L15.8092 15.6784V16.2784C16.1407 16.2784 16.4093 16.0095 16.4091 15.6781L15.8091 15.6785ZM15.8091 7.49991V15.6783H16.4091V7.49991H15.8091ZM15.8091 7.49991H16.4091C16.4091 7.1685 16.1405 6.89991 15.8091 6.89991V7.49991ZM10.2749 7.49991H15.8091V6.89991H10.2749V7.49991ZM9.97491 1.37715V7.19991H10.5749V1.37715H9.97491ZM9.97491 1.37715H10.5749C10.5749 1.04574 10.3063 0.777148 9.97491 0.777148V1.37715ZM1.31163 1.37715H9.97491V0.777148H1.31163V1.37715ZM1.31163 1.37715V0.777148C0.980222 0.777148 0.711627 1.04574 0.711627 1.37715H1.31163ZM1.31163 15.6784V1.37715H0.711627V15.6784H1.31163ZM1.31163 15.6784H0.711627C0.711627 16.0098 0.980222 16.2784 1.31163 16.2784V15.6784ZM10.2621 15.6784H15.5092V15.0784H10.2621V15.6784ZM9.96207 7.79991V15.3784H10.5621V7.79991H9.96207ZM15.5092 7.49991H10.2621V8.09991H15.5092V7.49991ZM15.8092 15.3784V7.79991H15.2092V15.3784H15.8092ZM9.66219 15.0784H4.51503V15.6784H9.66219V15.0784ZM9.36219 11.3598V15.3784H9.96219V11.3598H9.36219ZM4.51503 11.6598H9.66219V11.0598H4.51503V11.6598ZM4.81503 15.3784V11.3598H4.21503V15.3784H4.81503ZM1.61163 15.6784H3.91491V15.0784H1.61163V15.6784ZM1.31163 11.3598V15.3784H1.91163V11.3598H1.31163ZM3.91491 11.0598H1.61163V11.6598H3.91491V11.0598ZM4.21491 15.3784V11.3598H3.61491V15.3784H4.21491ZM9.66219 10.4598H4.21503V11.0598H9.66219V10.4598ZM9.36219 7.49991V10.7598H9.96219V7.49991H9.36219ZM9.38758 7.32668C9.37132 7.38111 9.36219 7.43929 9.36219 7.49991H9.96219C9.96219 7.4998 9.96218 7.49942 9.96248 7.49842L9.38758 7.32668ZM9.37503 4.27983V7.41255H9.97503V4.27983H9.37503ZM1.61163 4.57983H9.67503V3.97983H1.61163V4.57983ZM1.91163 10.7598V4.27983H1.31163V10.7598H1.91163ZM4.21503 10.4598H1.61163V11.0598H4.21503V10.4598ZM1.61163 3.97983H9.61163V3.37983H1.61163V3.97983ZM1.31163 1.67715V3.67983H1.91163V1.67715H1.31163ZM9.61163 1.37715H1.61163V1.97715H9.61163V1.37715ZM9.91163 3.67983V1.67715H9.31163V3.67983H9.91163Z" fill="#0F6E94"/>
</svg>
