<svg width="18" height="23" viewBox="0 0 18 23" fill="none" xmlns="http://www.w3.org/2000/svg">
<path fill-rule="evenodd" clip-rule="evenodd" d="M9.24802 12.6928C11.3459 12.7033 13.0868 10.9763 13.0953 8.87586C13.1039 6.74314 11.3967 4.99841 9.2921 4.9893C7.17035 4.98009 5.43089 6.6947 5.41872 8.80711C5.40656 10.9448 7.11849 12.6821 9.24802 12.6928ZM9.01643 0.434327C13.3546 0.433326 16.8604 3.42651 17.528 7.49481C17.7949 9.12085 17.5353 10.6834 16.9617 12.2053C16.0581 14.6022 14.6891 16.7299 13.0912 18.7042C12.0295 20.016 10.8649 21.2439 9.74559 22.5087C9.69054 22.5709 9.6291 22.6275 9.56826 22.6844C9.32401 22.9121 9.18209 22.9198 8.94981 22.685C8.48754 22.2175 8.02328 21.7513 7.57996 21.2659C5.99937 19.5357 4.53847 17.7112 3.30625 15.711C2.42071 14.2736 1.67071 12.7746 1.20854 11.1389C0.156049 7.41455 1.74053 3.49326 5.09179 1.55438C6.38096 0.808512 7.77205 0.450839 9.01643 0.434327Z" fill="#01648E"/>
</svg>
