<svg width="40" height="40" viewBox="0 0 40 40" fill="none" xmlns="http://www.w3.org/2000/svg">
<rect width="40" height="40" rx="14" fill="#E1F6FF"/>
<path fill-rule="evenodd" clip-rule="evenodd" d="M20.5171 15.1566L20.2367 15.1568C19.974 15.1571 19.7114 15.1575 19.4488 15.1552C19.3738 15.1545 19.3469 15.1772 19.3501 15.2537C19.3554 15.3858 19.3561 15.5184 19.3499 15.6503C19.346 15.7334 19.3705 15.7624 19.457 15.7606C19.6343 15.7568 19.8118 15.7575 19.9892 15.7582C20.0593 15.7584 20.1295 15.7587 20.1996 15.7587L20.548 15.7585H20.548C20.8897 15.7583 21.2314 15.758 21.5731 15.7601C21.6476 15.7605 21.6757 15.7394 21.6725 15.6624C21.6672 15.5337 21.6659 15.4045 21.6729 15.276C21.6778 15.1844 21.6509 15.1528 21.5548 15.1543C21.3043 15.1583 21.0538 15.1577 20.8032 15.157C20.7079 15.1568 20.6125 15.1565 20.5171 15.1566ZM26.8605 22.353C26.8518 22.353 26.8453 22.3527 26.8404 22.3525C26.8324 22.3522 26.8282 22.352 26.8246 22.3533C26.812 22.3581 26.7999 22.3645 26.788 22.371C26.4287 22.5643 26.0476 22.6586 25.6371 22.6582C22.217 22.6551 18.7969 22.6555 15.3769 22.6579C15.0276 22.6581 14.697 22.591 14.3816 22.4435C14.3364 22.4224 14.2914 22.4011 14.2431 22.3783L14.162 22.34V26.1292H26.8605V22.353ZM20.5097 16.8894H18.2379L17.424 16.8895C16.371 16.8897 15.3179 16.8899 14.2649 16.8884C14.1819 16.8883 14.1538 16.9124 14.154 16.9979C14.1549 17.4097 14.1544 17.8215 14.1538 18.2332V18.2333C14.1528 18.9591 14.1518 19.685 14.1588 20.4108C14.1652 21.0641 14.6174 21.5239 15.2759 21.5256C18.7671 21.5346 22.2585 21.5349 25.7498 21.5254C26.4427 21.5236 26.8593 21.0202 26.8632 20.4183C26.8674 19.7632 26.867 19.1082 26.8667 18.4531C26.8664 17.9705 26.8661 17.4879 26.8677 17.0053C26.868 16.906 26.8323 16.8878 26.7442 16.8883C26.3604 16.8905 25.9765 16.8902 25.5927 16.8899L25.1856 16.8897C23.6269 16.8897 22.0683 16.8897 20.5097 16.8894ZM13.0256 15.7587H13.1695L18.0705 15.7587C18.2132 15.7587 18.2132 15.7585 18.2168 15.6207L18.217 15.6135C18.2188 15.5484 18.2189 15.4829 18.219 15.4174V15.4173C18.2193 15.2514 18.2196 15.0853 18.2461 14.9236C18.3322 14.396 18.7677 14.0324 19.3031 14.0286C20.1079 14.0228 20.913 14.0226 21.7179 14.0285C22.3091 14.0328 22.7681 14.4796 22.7997 15.0712C22.8064 15.1977 22.8057 15.3245 22.8049 15.4513V15.4513C22.8047 15.4944 22.8044 15.5374 22.8045 15.5804C22.8046 15.7647 22.8078 15.7645 22.9097 15.76C22.9287 15.7591 22.9511 15.7581 22.9776 15.7581C24.2472 15.7589 25.5168 15.7588 26.7863 15.7588H26.7869L27.8582 15.7587C27.996 15.7588 27.9962 15.7588 27.9962 15.8958V27.145C27.9962 27.2783 27.9959 27.2786 27.8628 27.2785L25.8433 27.2778C24.3261 27.2772 22.8089 27.2766 21.2917 27.2766C20.3377 27.2765 19.3838 27.2771 18.4298 27.2776L18.4187 27.2776C17.8109 27.2779 17.2031 27.2783 16.5952 27.2785L15.6816 27.2784C14.8383 27.2783 13.995 27.2781 13.1517 27.2811C13.0448 27.2815 13.0233 27.2488 13.0234 27.1483C13.0263 24.4017 13.0265 21.655 13.0268 18.9084L13.0268 18.4569C13.0268 17.8908 13.0265 17.3248 13.0261 16.7587L13.0256 15.9096V15.7587ZM17.6188 20.2812V20.2812C17.6183 20.4628 17.6179 20.6444 17.6206 20.826C17.6217 20.8985 17.6055 20.9281 17.5259 20.9271C17.2106 20.923 16.8953 20.9237 16.5799 20.9267C16.5081 20.9275 16.4874 20.9023 16.4877 20.8326C16.4899 20.3308 16.49 19.829 16.4876 19.3272C16.4872 19.2551 16.5043 19.2235 16.5832 19.2243C16.8985 19.2277 17.2139 19.2273 17.5292 19.2246C17.6016 19.224 17.6214 19.2512 17.6205 19.3206C17.618 19.5027 17.6184 19.6848 17.6189 19.8669V19.8669C17.619 19.9357 17.6192 20.0045 17.6192 20.0733C17.6192 20.1426 17.619 20.2119 17.6188 20.2812ZM24.537 19.6219C24.537 19.4947 24.537 19.3669 24.537 19.2385C24.5292 19.2367 24.5223 19.2347 24.5158 19.2329C24.5034 19.2295 24.4929 19.2265 24.4825 19.2265C24.3574 19.2263 24.2323 19.2263 24.1073 19.2263C23.8998 19.2263 23.6922 19.2263 23.4847 19.2251C23.4122 19.2247 23.4027 19.2631 23.4029 19.3221C23.404 19.8277 23.4044 20.3332 23.4025 20.8388C23.4022 20.9054 23.4251 20.9271 23.4912 20.9266C23.8101 20.9241 24.1291 20.9241 24.4481 20.9265C24.5141 20.927 24.5381 20.9044 24.5379 20.8385C24.5367 20.4348 24.5368 20.0311 24.537 19.6219Z" fill="#0F6E94"/>
</svg>
