<svg width="40" height="40" viewBox="0 0 40 40" fill="none" xmlns="http://www.w3.org/2000/svg">
<rect opacity="0.1" width="40" height="40" rx="14" fill="black"/>
<path fill-rule="evenodd" clip-rule="evenodd" d="M18.8557 26.7491V22.3893H17.6173V21.1471H21.3465V22.3839H20.1126V26.7485H25.7241V22.3889H24.492V21.1423H25.7245V14.2732H22.6163V13.0282H26.9701V27.9942H12.0052V13.0227H12.1149C13.9814 13.0227 15.8479 13.0223 17.7145 13.0247C17.7707 13.0248 17.8356 13.0408 17.8819 13.0715C18.9726 13.7939 20.0613 14.5194 21.1504 15.2444C21.3335 15.3662 21.5162 15.4887 21.7061 15.6154C21.4711 15.9679 21.2415 16.3122 21.0056 16.6661C20.8405 16.5562 20.68 16.4498 20.52 16.3428C19.5097 15.6672 18.4998 14.9909 17.4882 14.3174C17.4443 14.2882 17.3843 14.2695 17.3317 14.2694C16.0047 14.2668 14.6777 14.2673 13.3508 14.2675C13.3182 14.2675 13.2855 14.2704 13.2473 14.2721V21.1339H14.4847V22.3819H13.2484V26.7491H18.8557Z" fill="black"/>
</svg>
